<svg xmlns="http://www.w3.org/2000/svg" xmlns:xlink="http://www.w3.org/1999/xlink" width="500" zoomAndPan="magnify" viewBox="0 0 375 374.999991" height="500" preserveAspectRatio="xMidYMid meet" version="1.0"><defs><clipPath id="cbfe69423f"><path d="M 187.5 0 C 83.945312 0 0 83.945312 0 187.5 C 0 291.054688 83.945312 375 187.5 375 C 291.054688 375 375 291.054688 375 187.5 C 375 83.945312 291.054688 0 187.5 0 Z M 187.5 0 " clip-rule="nonzero"/></clipPath><clipPath id="609ef6a5b9"><path d="M 89 56.757812 L 286 56.757812 L 286 253 L 89 253 Z M 89 56.757812 " clip-rule="nonzero"/></clipPath><clipPath id="7ac98fcb08"><path d="M 87 313 L 288 313 L 288 318.507812 L 87 318.507812 Z M 87 313 " clip-rule="nonzero"/></clipPath><clipPath id="158ef10cda"><path d="M 29.742188 104 L 89 104 L 89 198 L 29.742188 198 Z M 29.742188 104 " clip-rule="nonzero"/></clipPath><clipPath id="a13107e958"><path d="M 29.742188 81 L 148 81 L 148 129 L 29.742188 129 Z M 29.742188 81 " clip-rule="nonzero"/></clipPath><clipPath id="66761aa369"><path d="M 286 104 L 345.492188 104 L 345.492188 198 L 286 198 Z M 286 104 " clip-rule="nonzero"/></clipPath><clipPath id="d250a7d4dd"><path d="M 227 81 L 345.492188 81 L 345.492188 129 L 227 129 Z M 227 81 " clip-rule="nonzero"/></clipPath><clipPath id="ac25a5bf7c"><path d="M 286 104 L 345.492188 104 L 345.492188 129 L 286 129 Z M 286 104 " clip-rule="nonzero"/></clipPath><clipPath id="3e64b39717"><path d="M 29.742188 104 L 90 104 L 90 129 L 29.742188 129 Z M 29.742188 104 " clip-rule="nonzero"/></clipPath></defs><g clip-path="url(#cbfe69423f)"><rect x="-37.5" width="450" fill="#fe3770" y="-37.499999" height="449.999989" fill-opacity="1"/></g><path fill="#171f79" d="M 88.878906 117.222656 L 84.644531 130.335938 L 96.390625 153.683594 L 275.75 187.640625 L 286.484375 197.710938 L 295.28125 188.222656 L 299.070312 106.675781 L 94.167969 101.394531 Z M 88.878906 117.222656 " fill-opacity="1" fill-rule="nonzero"/><path fill="#39dcfd" d="M 87.816406 313.371094 L 87.273438 313.554688 L 87.273438 314.023438 L 287.964844 314.023438 L 287.964844 313.554688 L 287.609375 313.371094 Z M 87.816406 313.371094 " fill-opacity="1" fill-rule="nonzero"/><g clip-path="url(#609ef6a5b9)"><path fill="#fbb72e" d="M 285.34375 154.527344 C 285.34375 156.128906 285.304688 157.726562 285.226562 159.324219 C 285.148438 160.921875 285.03125 162.519531 284.871094 164.109375 C 284.714844 165.703125 284.519531 167.289062 284.285156 168.871094 C 284.050781 170.453125 283.777344 172.027344 283.464844 173.597656 C 283.152344 175.167969 282.804688 176.726562 282.414062 178.277344 C 282.027344 179.832031 281.601562 181.371094 281.136719 182.902344 C 280.671875 184.433594 280.167969 185.953125 279.632812 187.457031 C 279.09375 188.964844 278.515625 190.457031 277.90625 191.933594 C 277.292969 193.410156 276.644531 194.875 275.960938 196.320312 C 275.277344 197.765625 274.558594 199.195312 273.804688 200.605469 C 273.050781 202.015625 272.261719 203.40625 271.441406 204.777344 C 270.617188 206.152344 269.761719 207.503906 268.875 208.832031 C 267.984375 210.164062 267.066406 211.46875 266.113281 212.753906 C 265.160156 214.039062 264.175781 215.300781 263.164062 216.535156 C 262.148438 217.773438 261.101562 218.984375 260.03125 220.167969 C 258.957031 221.355469 257.851562 222.511719 256.722656 223.644531 C 255.589844 224.773438 254.433594 225.878906 253.25 226.953125 C 252.0625 228.027344 250.851562 229.070312 249.617188 230.085938 C 248.378906 231.101562 247.121094 232.085938 245.835938 233.035156 C 244.550781 233.988281 243.242188 234.910156 241.914062 235.800781 C 240.585938 236.6875 239.234375 237.542969 237.863281 238.367188 C 236.492188 239.1875 235.097656 239.976562 233.6875 240.730469 C 232.277344 241.484375 230.851562 242.203125 229.40625 242.886719 C 227.960938 243.570312 226.496094 244.21875 225.019531 244.832031 C 223.542969 245.445312 222.050781 246.019531 220.546875 246.558594 C 219.039062 247.097656 217.519531 247.597656 215.992188 248.0625 C 214.460938 248.527344 212.917969 248.953125 211.367188 249.34375 C 209.816406 249.730469 208.257812 250.082031 206.6875 250.394531 C 205.121094 250.707031 203.546875 250.980469 201.964844 251.214844 C 200.382812 251.449219 198.792969 251.644531 197.203125 251.800781 C 195.613281 251.957031 194.015625 252.074219 192.417969 252.152344 C 190.824219 252.234375 189.222656 252.273438 187.625 252.273438 C 186.027344 252.273438 184.425781 252.234375 182.832031 252.152344 C 181.234375 252.074219 179.636719 251.957031 178.046875 251.800781 C 176.457031 251.644531 174.867188 251.449219 173.285156 251.214844 C 171.703125 250.980469 170.128906 250.707031 168.5625 250.394531 C 166.992188 250.082031 165.433594 249.730469 163.882812 249.34375 C 162.328125 248.953125 160.789062 248.527344 159.257812 248.0625 C 157.726562 247.597656 156.210938 247.097656 154.703125 246.558594 C 153.199219 246.019531 151.707031 245.445312 150.230469 244.832031 C 148.753906 244.21875 147.289062 243.570312 145.84375 242.886719 C 144.398438 242.203125 142.972656 241.484375 141.5625 240.730469 C 140.152344 239.976562 138.757812 239.1875 137.386719 238.367188 C 136.015625 237.542969 134.664062 236.6875 133.335938 235.800781 C 132.003906 234.910156 130.699219 233.988281 129.414062 233.035156 C 128.128906 232.085938 126.871094 231.101562 125.632812 230.085938 C 124.398438 229.070312 123.1875 228.027344 122 226.953125 C 120.816406 225.878906 119.660156 224.773438 118.527344 223.644531 C 117.398438 222.511719 116.292969 221.355469 115.21875 220.167969 C 114.144531 218.984375 113.101562 217.773438 112.085938 216.535156 C 111.074219 215.300781 110.089844 214.039062 109.136719 212.753906 C 108.183594 211.46875 107.261719 210.164062 106.375 208.832031 C 105.488281 207.503906 104.632812 206.152344 103.808594 204.777344 C 102.988281 203.40625 102.199219 202.015625 101.445312 200.605469 C 100.691406 199.195312 99.972656 197.765625 99.289062 196.320312 C 98.605469 194.875 97.957031 193.410156 97.34375 191.933594 C 96.734375 190.457031 96.15625 188.964844 95.617188 187.457031 C 95.078125 185.953125 94.578125 184.433594 94.113281 182.902344 C 93.648438 181.371094 93.222656 179.832031 92.835938 178.277344 C 92.445312 176.726562 92.097656 175.167969 91.785156 173.597656 C 91.472656 172.027344 91.199219 170.453125 90.964844 168.871094 C 90.730469 167.289062 90.535156 165.703125 90.378906 164.109375 C 90.21875 162.519531 90.101562 160.921875 90.023438 159.324219 C 89.945312 157.726562 89.90625 156.128906 89.90625 154.527344 C 89.90625 152.929688 89.945312 151.332031 90.023438 149.734375 C 90.101562 148.136719 90.21875 146.539062 90.378906 144.949219 C 90.535156 143.355469 90.730469 141.769531 90.964844 140.1875 C 91.199219 138.605469 91.472656 137.03125 91.785156 135.460938 C 92.097656 133.890625 92.445312 132.332031 92.835938 130.78125 C 93.222656 129.226562 93.648438 127.6875 94.113281 126.15625 C 94.578125 124.625 95.078125 123.105469 95.617188 121.601562 C 96.15625 120.09375 96.734375 118.601562 97.34375 117.125 C 97.957031 115.648438 98.605469 114.183594 99.289062 112.738281 C 99.972656 111.292969 100.691406 109.863281 101.445312 108.453125 C 102.199219 107.042969 102.988281 105.652344 103.808594 104.28125 C 104.632812 102.90625 105.488281 101.554688 106.375 100.226562 C 107.261719 98.894531 108.183594 97.589844 109.136719 96.304688 C 110.089844 95.019531 111.074219 93.757812 112.085938 92.523438 C 113.101562 91.285156 114.144531 90.074219 115.21875 88.890625 C 116.292969 87.703125 117.398438 86.546875 118.527344 85.414062 C 119.660156 84.285156 120.816406 83.179688 122 82.105469 C 123.1875 81.03125 124.398438 79.988281 125.632812 78.972656 C 126.871094 77.957031 128.128906 76.972656 129.414062 76.019531 C 130.699219 75.070312 132.003906 74.148438 133.335938 73.257812 C 134.664062 72.371094 136.015625 71.515625 137.386719 70.691406 C 138.757812 69.871094 140.152344 69.082031 141.5625 68.328125 C 142.972656 67.574219 144.398438 66.855469 145.84375 66.171875 C 147.289062 65.488281 148.753906 64.839844 150.230469 64.226562 C 151.707031 63.613281 153.199219 63.039062 154.703125 62.5 C 156.210938 61.960938 157.726562 61.460938 159.257812 60.996094 C 160.789062 60.53125 162.328125 60.105469 163.882812 59.714844 C 165.433594 59.328125 166.992188 58.976562 168.5625 58.664062 C 170.128906 58.351562 171.703125 58.078125 173.285156 57.84375 C 174.867188 57.609375 176.457031 57.414062 178.046875 57.257812 C 179.636719 57.101562 181.234375 56.984375 182.832031 56.902344 C 184.425781 56.824219 186.027344 56.785156 187.625 56.785156 C 189.222656 56.785156 190.824219 56.824219 192.417969 56.902344 C 194.015625 56.984375 195.613281 57.101562 197.203125 57.257812 C 198.792969 57.414062 200.382812 57.609375 201.964844 57.84375 C 203.546875 58.078125 205.121094 58.351562 206.6875 58.664062 C 208.257812 58.976562 209.816406 59.328125 211.367188 59.714844 C 212.917969 60.105469 214.460938 60.53125 215.992188 60.996094 C 217.519531 61.460938 219.039062 61.960938 220.546875 62.5 C 222.050781 63.039062 223.542969 63.613281 225.019531 64.226562 C 226.496094 64.839844 227.960938 65.488281 229.40625 66.171875 C 230.851562 66.855469 232.277344 67.574219 233.6875 68.328125 C 235.097656 69.082031 236.492188 69.871094 237.863281 70.691406 C 239.234375 71.515625 240.585938 72.371094 241.914062 73.257812 C 243.242188 74.148438 244.550781 75.070312 245.835938 76.019531 C 247.121094 76.972656 248.378906 77.957031 249.617188 78.972656 C 250.851562 79.988281 252.0625 81.03125 253.25 82.105469 C 254.433594 83.179688 255.589844 84.285156 256.722656 85.414062 C 257.851562 86.546875 258.957031 87.703125 260.03125 88.890625 C 261.101562 90.074219 262.148438 91.285156 263.164062 92.523438 C 264.175781 93.757812 265.160156 95.019531 266.113281 96.304688 C 267.066406 97.589844 267.984375 98.894531 268.875 100.226562 C 269.761719 101.554688 270.617188 102.90625 271.441406 104.28125 C 272.261719 105.652344 273.050781 107.042969 273.804688 108.453125 C 274.558594 109.863281 275.277344 111.292969 275.960938 112.738281 C 276.644531 114.183594 277.292969 115.648438 277.90625 117.125 C 278.515625 118.601562 279.09375 120.09375 279.632812 121.601562 C 280.167969 123.105469 280.671875 124.625 281.136719 126.15625 C 281.601562 127.6875 282.027344 129.226562 282.414062 130.78125 C 282.804688 132.332031 283.152344 133.890625 283.464844 135.460938 C 283.777344 137.03125 284.050781 138.605469 284.285156 140.1875 C 284.519531 141.769531 284.714844 143.355469 284.871094 144.949219 C 285.03125 146.539062 285.148438 148.136719 285.226562 149.734375 C 285.304688 151.332031 285.34375 152.929688 285.34375 154.527344 Z M 285.34375 154.527344 " fill-opacity="1" fill-rule="nonzero"/></g><path fill="#e1e6f5" d="M 187.617188 240.511719 C 140.21875 240.511719 101.660156 201.941406 101.660156 154.527344 C 101.660156 107.117188 140.257812 68.546875 187.617188 68.546875 C 234.980469 68.546875 273.585938 107.117188 273.585938 154.527344 C 273.585938 201.941406 235.023438 240.511719 187.617188 240.511719 Z M 187.617188 70.441406 C 141.261719 70.441406 103.554688 108.160156 103.554688 154.527344 C 103.554688 200.898438 141.265625 238.617188 187.617188 238.617188 C 233.96875 238.617188 271.683594 200.894531 271.683594 154.527344 C 271.683594 108.164062 233.976562 70.441406 187.617188 70.441406 Z M 187.617188 70.441406 " fill-opacity="1" fill-rule="nonzero"/><path fill="#e1e6f5" d="M 287.964844 313.554688 L 87.273438 313.554688 L 119.460938 281.617188 L 255.789062 281.617188 Z M 287.964844 313.554688 " fill-opacity="1" fill-rule="nonzero"/><path fill="#3c72f8" d="M 266.367188 302.570312 L 108.875 302.570312 L 124.847656 284.511719 L 250.402344 284.511719 Z M 266.367188 302.570312 " fill-opacity="1" fill-rule="nonzero"/><g clip-path="url(#7ac98fcb08)"><path fill="#39dcfd" d="M 87.625 313.554688 L 287.617188 313.554688 C 287.710938 313.554688 287.792969 313.589844 287.863281 313.65625 C 287.929688 313.726562 287.964844 313.808594 287.964844 313.902344 L 287.964844 318.148438 C 287.964844 318.242188 287.929688 318.324219 287.863281 318.394531 C 287.792969 318.460938 287.710938 318.496094 287.617188 318.496094 L 89.027344 318.496094 C 88.796875 318.496094 88.574219 318.449219 88.359375 318.363281 C 88.144531 318.273438 87.957031 318.148438 87.792969 317.984375 C 87.628906 317.820312 87.5 317.628906 87.414062 317.414062 C 87.324219 317.199219 87.28125 316.976562 87.28125 316.746094 L 87.28125 313.902344 C 87.28125 313.808594 87.3125 313.726562 87.382812 313.65625 C 87.449219 313.589844 87.53125 313.554688 87.625 313.554688 Z M 87.625 313.554688 " fill-opacity="1" fill-rule="nonzero"/></g><path fill="#171f79" d="M 123.105469 194.445312 L 252.152344 194.445312 C 252.636719 194.445312 253.097656 194.535156 253.546875 194.722656 C 253.992188 194.90625 254.386719 195.167969 254.726562 195.511719 C 255.070312 195.851562 255.332031 196.246094 255.519531 196.695312 C 255.703125 197.140625 255.796875 197.605469 255.796875 198.089844 L 255.796875 277.972656 C 255.796875 278.457031 255.703125 278.921875 255.519531 279.367188 C 255.332031 279.816406 255.070312 280.210938 254.726562 280.550781 C 254.386719 280.894531 253.992188 281.15625 253.546875 281.339844 C 253.097656 281.527344 252.636719 281.617188 252.152344 281.617188 L 123.105469 281.617188 C 122.621094 281.617188 122.15625 281.527344 121.710938 281.339844 C 121.265625 281.15625 120.871094 280.894531 120.527344 280.550781 C 120.1875 280.210938 119.921875 279.816406 119.738281 279.367188 C 119.554688 278.921875 119.460938 278.457031 119.460938 277.972656 L 119.460938 198.089844 C 119.460938 197.605469 119.554688 197.140625 119.738281 196.695312 C 119.921875 196.246094 120.1875 195.851562 120.527344 195.511719 C 120.871094 195.167969 121.265625 194.90625 121.710938 194.722656 C 122.15625 194.535156 122.621094 194.445312 123.105469 194.445312 Z M 123.105469 194.445312 " fill-opacity="1" fill-rule="nonzero"/><path fill="#39dcfd" d="M 252.664062 199.871094 L 252.664062 276.1875 C 252.664062 276.507812 252.601562 276.8125 252.476562 277.109375 C 252.355469 277.402344 252.179688 277.664062 251.953125 277.890625 C 251.730469 278.117188 251.46875 278.292969 251.171875 278.414062 C 250.878906 278.535156 250.570312 278.597656 250.25 278.597656 L 125.011719 278.597656 C 124.691406 278.597656 124.382812 278.535156 124.089844 278.414062 C 123.792969 278.292969 123.535156 278.117188 123.308594 277.890625 C 123.082031 277.664062 122.90625 277.402344 122.785156 277.109375 C 122.660156 276.8125 122.601562 276.507812 122.597656 276.1875 L 122.597656 199.871094 C 122.601562 199.550781 122.660156 199.242188 122.785156 198.949219 C 122.90625 198.652344 123.082031 198.394531 123.308594 198.167969 C 123.535156 197.941406 123.792969 197.769531 124.089844 197.644531 C 124.386719 197.523438 124.691406 197.464844 125.011719 197.464844 L 250.238281 197.464844 C 250.558594 197.460938 250.867188 197.519531 251.164062 197.640625 C 251.460938 197.765625 251.722656 197.9375 251.949219 198.164062 C 252.175781 198.390625 252.351562 198.648438 252.476562 198.945312 C 252.601562 199.242188 252.664062 199.550781 252.664062 199.871094 Z M 252.664062 199.871094 " fill-opacity="1" fill-rule="nonzero"/><path fill="#3c72f8" d="M 214.324219 313.871094 L 160.917969 313.871094 C 160.789062 313.871094 160.695312 313.8125 160.632812 313.695312 C 160.566406 313.585938 160.566406 313.476562 160.632812 313.367188 L 168.71875 302.386719 C 168.78125 302.300781 168.867188 302.257812 168.976562 302.253906 L 206.234375 302.253906 C 206.34375 302.253906 206.425781 302.300781 206.488281 302.386719 L 214.578125 313.367188 C 214.648438 313.46875 214.65625 313.578125 214.601562 313.695312 C 214.542969 313.808594 214.453125 313.867188 214.324219 313.871094 Z M 161.542969 313.238281 L 213.699219 313.238281 L 206.078125 302.886719 L 169.167969 302.886719 Z M 161.542969 313.238281 " fill-opacity="1" fill-rule="nonzero"/><g clip-path="url(#158ef10cda)"><path fill="#3c72f8" d="M 88.757812 128.054688 L 88.757812 197.714844 L 29.742188 174.332031 L 29.742188 104.679688 Z M 88.757812 128.054688 " fill-opacity="1" fill-rule="nonzero"/></g><path fill="#171f79" d="M 88.75 197.710938 L 147.765625 174.332031 L 147.765625 104.679688 L 88.75 128.054688 Z M 88.75 197.710938 " fill-opacity="1" fill-rule="nonzero"/><g clip-path="url(#a13107e958)"><path fill="#3c72f8" d="M 147.757812 104.679688 L 89.046875 127.9375 L 88.757812 128.054688 L 29.742188 104.679688 L 30.171875 104.507812 L 88.757812 81.308594 Z M 147.757812 104.679688 " fill-opacity="1" fill-rule="nonzero"/></g><path fill="#39dcfd" d="M 51.289062 103.414062 L 88.75 88.578125 L 126.21875 103.414062 L 88.75 118.257812 Z M 51.289062 103.414062 " fill-opacity="1" fill-rule="nonzero"/><path fill="#39dcfd" d="M 82.386719 137.214844 L 82.386719 148.523438 L 36.117188 130.191406 L 36.117188 118.890625 Z M 82.386719 137.214844 " fill-opacity="1" fill-rule="nonzero"/><path fill="#39dcfd" d="M 82.386719 153.847656 L 82.386719 165.152344 L 36.117188 146.824219 L 36.117188 135.523438 Z M 82.386719 153.847656 " fill-opacity="1" fill-rule="nonzero"/><path fill="#39dcfd" d="M 82.386719 170.484375 L 82.386719 181.792969 L 36.117188 163.460938 L 36.117188 152.160156 Z M 82.386719 170.484375 " fill-opacity="1" fill-rule="nonzero"/><g clip-path="url(#66761aa369)"><path fill="#3c72f8" d="M 345.492188 104.679688 L 345.492188 174.332031 L 286.484375 197.714844 L 286.484375 128.054688 Z M 345.492188 104.679688 " fill-opacity="1" fill-rule="nonzero"/></g><path fill="#171f79" d="M 286.484375 197.710938 L 227.480469 174.332031 L 227.480469 104.679688 L 286.484375 128.054688 Z M 286.484375 197.710938 " fill-opacity="1" fill-rule="nonzero"/><g clip-path="url(#d250a7d4dd)"><path fill="#3c72f8" d="M 345.492188 104.679688 L 286.484375 128.054688 L 286.195312 127.9375 L 227.480469 104.679688 L 286.484375 81.308594 L 345.070312 104.507812 Z M 345.492188 104.679688 " fill-opacity="1" fill-rule="nonzero"/></g><path fill="#39dcfd" d="M 323.953125 103.414062 L 286.484375 88.578125 L 249.027344 103.414062 L 286.484375 118.257812 Z M 323.953125 103.414062 " fill-opacity="1" fill-rule="nonzero"/><path fill="#39dcfd" d="M 292.859375 137.214844 L 292.859375 148.523438 L 339.128906 130.191406 L 339.128906 118.890625 Z M 292.859375 137.214844 " fill-opacity="1" fill-rule="nonzero"/><path fill="#39dcfd" d="M 292.859375 153.847656 L 292.859375 165.152344 L 339.128906 146.824219 L 339.128906 135.523438 Z M 292.859375 153.847656 " fill-opacity="1" fill-rule="nonzero"/><path fill="#39dcfd" d="M 292.859375 170.484375 L 292.859375 181.792969 L 339.128906 163.460938 L 339.128906 152.160156 Z M 292.859375 170.484375 " fill-opacity="1" fill-rule="nonzero"/><path fill="#3c72f8" d="M 168.902344 167.996094 L 148.554688 167.996094 C 147.683594 167.996094 146.820312 167.914062 145.964844 167.742188 C 145.109375 167.574219 144.28125 167.320312 143.476562 166.988281 C 142.671875 166.65625 141.90625 166.246094 141.183594 165.765625 C 140.457031 165.28125 139.785156 164.730469 139.171875 164.113281 C 138.554688 163.5 138.003906 162.828125 137.519531 162.105469 C 137.035156 161.378906 136.628906 160.613281 136.292969 159.808594 C 135.960938 159.003906 135.707031 158.175781 135.539062 157.320312 C 135.367188 156.464844 135.285156 155.601562 135.285156 154.730469 C 135.285156 153.859375 135.367188 152.996094 135.539062 152.140625 C 135.707031 151.289062 135.960938 150.457031 136.292969 149.652344 C 136.628906 148.847656 137.035156 148.082031 137.519531 147.359375 C 138.003906 146.632812 138.554688 145.964844 139.171875 145.347656 C 139.785156 144.734375 140.457031 144.183594 141.183594 143.699219 C 141.90625 143.214844 142.671875 142.804688 143.476562 142.472656 C 144.28125 142.140625 145.109375 141.890625 145.964844 141.71875 C 146.820312 141.550781 147.683594 141.464844 148.554688 141.464844 L 168.902344 141.464844 C 169.769531 141.46875 170.632812 141.550781 171.488281 141.722656 C 172.339844 141.894531 173.167969 142.144531 173.972656 142.480469 C 174.777344 142.8125 175.539062 143.222656 176.265625 143.707031 C 176.988281 144.1875 177.65625 144.738281 178.273438 145.355469 C 178.886719 145.972656 179.4375 146.640625 179.921875 147.363281 C 180.402344 148.089844 180.8125 148.851562 181.144531 149.65625 C 181.476562 150.460938 181.730469 151.289062 181.898438 152.144531 C 182.070312 153 182.152344 153.859375 182.152344 154.730469 C 182.152344 155.601562 182.070312 156.464844 181.898438 157.316406 C 181.730469 158.171875 181.476562 159 181.144531 159.804688 C 180.8125 160.609375 180.402344 161.375 179.921875 162.097656 C 179.4375 162.820312 178.886719 163.492188 178.273438 164.109375 C 177.65625 164.722656 176.988281 165.273438 176.265625 165.757812 C 175.539062 166.242188 174.777344 166.648438 173.972656 166.984375 C 173.167969 167.316406 172.339844 167.570312 171.488281 167.738281 C 170.632812 167.910156 169.769531 167.996094 168.902344 167.996094 Z M 148.554688 147.152344 C 148.054688 147.152344 147.5625 147.199219 147.074219 147.296875 C 146.585938 147.394531 146.113281 147.539062 145.652344 147.726562 C 145.195312 147.917969 144.757812 148.152344 144.34375 148.429688 C 143.929688 148.707031 143.546875 149.019531 143.195312 149.371094 C 142.84375 149.722656 142.53125 150.105469 142.253906 150.519531 C 141.976562 150.933594 141.742188 151.371094 141.554688 151.832031 C 141.363281 152.289062 141.21875 152.765625 141.121094 153.253906 C 141.023438 153.742188 140.976562 154.234375 140.976562 154.730469 C 140.976562 155.230469 141.023438 155.722656 141.121094 156.210938 C 141.21875 156.699219 141.363281 157.171875 141.554688 157.632812 C 141.742188 158.09375 141.976562 158.527344 142.253906 158.941406 C 142.53125 159.355469 142.84375 159.738281 143.195312 160.089844 C 143.546875 160.441406 143.929688 160.757812 144.34375 161.035156 C 144.757812 161.308594 145.195312 161.542969 145.652344 161.734375 C 146.113281 161.925781 146.585938 162.070312 147.074219 162.164062 C 147.5625 162.261719 148.054688 162.3125 148.554688 162.3125 L 168.902344 162.3125 C 169.398438 162.3125 169.890625 162.261719 170.378906 162.164062 C 170.867188 162.070312 171.339844 161.925781 171.800781 161.734375 C 172.261719 161.542969 172.699219 161.308594 173.109375 161.035156 C 173.523438 160.757812 173.90625 160.441406 174.257812 160.089844 C 174.609375 159.738281 174.925781 159.355469 175.203125 158.941406 C 175.476562 158.527344 175.710938 158.09375 175.902344 157.632812 C 176.09375 157.171875 176.234375 156.699219 176.332031 156.210938 C 176.429688 155.722656 176.480469 155.230469 176.480469 154.730469 C 176.480469 154.234375 176.429688 153.742188 176.332031 153.253906 C 176.234375 152.765625 176.09375 152.289062 175.902344 151.832031 C 175.710938 151.371094 175.476562 150.933594 175.203125 150.519531 C 174.925781 150.105469 174.609375 149.722656 174.257812 149.371094 C 173.90625 149.019531 173.523438 148.707031 173.109375 148.429688 C 172.699219 148.152344 172.261719 147.917969 171.800781 147.726562 C 171.339844 147.539062 170.867188 147.394531 170.378906 147.296875 C 169.890625 147.199219 169.398438 147.152344 168.902344 147.152344 Z M 148.554688 147.152344 " fill-opacity="1" fill-rule="nonzero"/><path fill="#3c72f8" d="M 145.648438 157.585938 L 113.441406 157.585938 C 113.066406 157.585938 112.703125 157.515625 112.355469 157.371094 C 112.007812 157.226562 111.699219 157.019531 111.433594 156.753906 C 111.167969 156.488281 110.960938 156.179688 110.816406 155.832031 C 110.671875 155.484375 110.601562 155.121094 110.601562 154.742188 C 110.601562 154.367188 110.671875 154.003906 110.816406 153.65625 C 110.960938 153.308594 111.167969 153 111.433594 152.734375 C 111.699219 152.46875 112.007812 152.261719 112.355469 152.117188 C 112.703125 151.972656 113.066406 151.902344 113.441406 151.902344 L 145.648438 151.902344 C 146.027344 151.902344 146.386719 151.972656 146.738281 152.117188 C 147.085938 152.261719 147.390625 152.46875 147.660156 152.734375 C 147.925781 153 148.128906 153.308594 148.273438 153.65625 C 148.417969 154.003906 148.492188 154.367188 148.492188 154.742188 C 148.492188 155.121094 148.417969 155.484375 148.273438 155.832031 C 148.128906 156.179688 147.925781 156.488281 147.660156 156.753906 C 147.390625 157.019531 147.085938 157.226562 146.738281 157.371094 C 146.386719 157.515625 146.027344 157.585938 145.648438 157.585938 Z M 145.648438 157.585938 " fill-opacity="1" fill-rule="nonzero"/><path fill="#3c72f8" d="M 226.695312 167.996094 L 206.347656 167.996094 C 205.476562 167.996094 204.617188 167.910156 203.761719 167.738281 C 202.910156 167.570312 202.082031 167.316406 201.277344 166.984375 C 200.472656 166.648438 199.710938 166.242188 198.984375 165.757812 C 198.261719 165.273438 197.59375 164.722656 196.976562 164.109375 C 196.363281 163.492188 195.8125 162.820312 195.328125 162.097656 C 194.847656 161.375 194.4375 160.609375 194.105469 159.804688 C 193.773438 159 193.519531 158.171875 193.351562 157.316406 C 193.179688 156.464844 193.097656 155.601562 193.097656 154.730469 C 193.097656 153.859375 193.179688 153 193.351562 152.144531 C 193.519531 151.289062 193.773438 150.460938 194.105469 149.65625 C 194.4375 148.851562 194.847656 148.089844 195.328125 147.363281 C 195.8125 146.640625 196.363281 145.96875 196.976562 145.355469 C 197.59375 144.738281 198.261719 144.1875 198.984375 143.707031 C 199.710938 143.222656 200.472656 142.8125 201.277344 142.480469 C 202.082031 142.144531 202.910156 141.894531 203.761719 141.722656 C 204.617188 141.550781 205.476562 141.46875 206.347656 141.464844 L 226.695312 141.464844 C 227.566406 141.464844 228.429688 141.550781 229.285156 141.71875 C 230.140625 141.890625 230.96875 142.140625 231.773438 142.472656 C 232.578125 142.804688 233.34375 143.214844 234.066406 143.699219 C 234.792969 144.183594 235.460938 144.734375 236.078125 145.347656 C 236.695312 145.964844 237.246094 146.632812 237.730469 147.359375 C 238.214844 148.082031 238.621094 148.847656 238.957031 149.652344 C 239.289062 150.457031 239.542969 151.289062 239.710938 152.140625 C 239.882812 152.996094 239.964844 153.859375 239.964844 154.730469 C 239.964844 155.601562 239.882812 156.464844 239.710938 157.320312 C 239.542969 158.175781 239.289062 159.003906 238.957031 159.808594 C 238.621094 160.613281 238.214844 161.378906 237.730469 162.105469 C 237.246094 162.828125 236.695312 163.5 236.078125 164.113281 C 235.460938 164.730469 234.792969 165.28125 234.066406 165.765625 C 233.34375 166.246094 232.578125 166.65625 231.773438 166.988281 C 230.96875 167.320312 230.140625 167.574219 229.285156 167.742188 C 228.429688 167.914062 227.566406 167.996094 226.695312 167.996094 Z M 206.347656 147.152344 C 205.851562 147.152344 205.359375 147.199219 204.871094 147.296875 C 204.382812 147.394531 203.910156 147.539062 203.449219 147.726562 C 202.988281 147.917969 202.550781 148.152344 202.140625 148.429688 C 201.726562 148.707031 201.34375 149.019531 200.992188 149.371094 C 200.636719 149.722656 200.324219 150.105469 200.046875 150.519531 C 199.773438 150.933594 199.539062 151.371094 199.347656 151.832031 C 199.15625 152.289062 199.011719 152.765625 198.917969 153.253906 C 198.820312 153.742188 198.769531 154.234375 198.769531 154.730469 C 198.769531 155.230469 198.820312 155.722656 198.917969 156.210938 C 199.011719 156.699219 199.15625 157.171875 199.347656 157.632812 C 199.539062 158.09375 199.773438 158.527344 200.046875 158.941406 C 200.324219 159.355469 200.636719 159.738281 200.992188 160.089844 C 201.34375 160.441406 201.726562 160.757812 202.140625 161.035156 C 202.550781 161.308594 202.988281 161.542969 203.449219 161.734375 C 203.910156 161.925781 204.382812 162.070312 204.871094 162.164062 C 205.359375 162.261719 205.851562 162.3125 206.347656 162.3125 L 226.695312 162.3125 C 227.195312 162.3125 227.6875 162.261719 228.175781 162.164062 C 228.664062 162.070312 229.136719 161.925781 229.597656 161.734375 C 230.054688 161.542969 230.492188 161.308594 230.90625 161.035156 C 231.320312 160.757812 231.703125 160.441406 232.054688 160.089844 C 232.40625 159.738281 232.71875 159.355469 232.996094 158.941406 C 233.273438 158.527344 233.507812 158.09375 233.695312 157.632812 C 233.886719 157.171875 234.03125 156.699219 234.128906 156.210938 C 234.226562 155.722656 234.273438 155.230469 234.273438 154.730469 C 234.273438 154.234375 234.226562 153.742188 234.128906 153.253906 C 234.03125 152.765625 233.886719 152.289062 233.695312 151.832031 C 233.507812 151.371094 233.273438 150.933594 232.996094 150.519531 C 232.71875 150.105469 232.40625 149.722656 232.054688 149.371094 C 231.703125 149.019531 231.320312 148.707031 230.90625 148.429688 C 230.492188 148.152344 230.054688 147.917969 229.597656 147.726562 C 229.136719 147.539062 228.664062 147.394531 228.175781 147.296875 C 227.6875 147.199219 227.195312 147.152344 226.695312 147.152344 Z M 206.347656 147.152344 " fill-opacity="1" fill-rule="nonzero"/><path fill="#3c72f8" d="M 203.4375 157.585938 L 171.199219 157.585938 C 170.824219 157.585938 170.460938 157.515625 170.113281 157.371094 C 169.765625 157.226562 169.457031 157.019531 169.191406 156.753906 C 168.921875 156.488281 168.71875 156.179688 168.574219 155.832031 C 168.429688 155.484375 168.359375 155.121094 168.359375 154.742188 C 168.359375 154.367188 168.429688 154.003906 168.574219 153.65625 C 168.71875 153.308594 168.921875 153 169.191406 152.734375 C 169.457031 152.46875 169.765625 152.261719 170.113281 152.117188 C 170.460938 151.972656 170.824219 151.902344 171.199219 151.902344 L 203.40625 151.902344 C 203.78125 151.902344 204.144531 151.972656 204.492188 152.117188 C 204.839844 152.261719 205.148438 152.46875 205.414062 152.734375 C 205.683594 153 205.886719 153.308594 206.03125 153.65625 C 206.175781 154.003906 206.246094 154.367188 206.246094 154.742188 C 206.246094 155.121094 206.175781 155.484375 206.03125 155.832031 C 205.886719 156.179688 205.683594 156.488281 205.414062 156.753906 C 205.148438 157.019531 204.839844 157.226562 204.492188 157.371094 C 204.144531 157.515625 203.78125 157.585938 203.40625 157.585938 Z M 203.4375 157.585938 " fill-opacity="1" fill-rule="nonzero"/><path fill="#3c72f8" d="M 261.824219 157.585938 L 229.621094 157.585938 C 229.242188 157.585938 228.878906 157.515625 228.53125 157.371094 C 228.183594 157.226562 227.875 157.019531 227.609375 156.753906 C 227.34375 156.488281 227.136719 156.179688 226.996094 155.832031 C 226.851562 155.484375 226.777344 155.121094 226.777344 154.742188 C 226.777344 154.367188 226.851562 154.003906 226.996094 153.65625 C 227.136719 153.308594 227.34375 153 227.609375 152.734375 C 227.875 152.46875 228.183594 152.261719 228.53125 152.117188 C 228.878906 151.972656 229.242188 151.902344 229.621094 151.902344 L 261.824219 151.902344 C 262.203125 151.902344 262.566406 151.972656 262.914062 152.117188 C 263.261719 152.261719 263.570312 152.46875 263.835938 152.734375 C 264.101562 153 264.308594 153.308594 264.453125 153.65625 C 264.597656 154.003906 264.667969 154.367188 264.667969 154.742188 C 264.667969 155.121094 264.597656 155.484375 264.453125 155.832031 C 264.308594 156.179688 264.101562 156.488281 263.835938 156.753906 C 263.570312 157.019531 263.261719 157.226562 262.914062 157.371094 C 262.566406 157.515625 262.203125 157.585938 261.824219 157.585938 Z M 261.824219 157.585938 " fill-opacity="1" fill-rule="nonzero"/><path fill="#e1e6f5" d="M 168.472656 245.019531 C 165.8125 248.808594 163.386719 250.707031 161.070312 250.707031 C 159.339844 250.707031 157.71875 249.636719 156.234375 247.546875 C 155.347656 246.246094 154.6875 244.835938 154.25 243.320312 L 150.992188 232.25 C 150.59375 230.855469 150.050781 229.523438 149.363281 228.25 C 147.972656 225.753906 146.476562 224.460938 144.890625 224.460938 C 142.761719 224.402344 140.363281 226.574219 137.738281 230.890625 C 133.03125 238.023438 128.085938 241.042969 122.582031 240.136719 L 122.582031 239.507812 L 122.632812 239.507812 C 127.851562 240.390625 132.609375 237.453125 137.15625 230.542969 C 139.945312 225.976562 142.449219 223.796875 144.859375 223.820312 C 146.683594 223.859375 148.371094 225.25 149.867188 227.953125 C 150.578125 229.269531 151.144531 230.644531 151.558594 232.078125 L 154.863281 243.125 C 155.277344 244.574219 155.90625 245.917969 156.757812 247.160156 C 158.113281 249.101562 159.5625 250.085938 161.078125 250.085938 C 162.324219 250.007812 163.421875 249.554688 164.359375 248.726562 C 165.757812 247.550781 166.957031 246.199219 167.960938 244.671875 C 168.007812 244.601562 168.078125 244.554688 168.164062 244.539062 C 168.25 244.523438 168.328125 244.539062 168.402344 244.589844 C 168.550781 244.714844 168.574219 244.855469 168.472656 245.019531 Z M 168.472656 245.019531 " fill-opacity="1" fill-rule="nonzero"/><path fill="#e1e6f5" d="M 252.664062 233.460938 L 252.664062 234.09375 C 249.441406 234.953125 245.796875 234.789062 243.160156 227.382812 C 242.71875 226.117188 242.1875 224.890625 241.5625 223.703125 C 239.667969 220.171875 237.90625 218.425781 236.332031 218.523438 C 234.859375 218.609375 233.453125 220.367188 232.132812 223.726562 C 231.695312 224.871094 231.332031 226.042969 231.039062 227.234375 L 227.472656 241.4375 C 227.113281 242.886719 226.664062 244.300781 226.121094 245.691406 C 224.164062 250.585938 221.746094 253.351562 219.445312 253.351562 L 219.175781 253.351562 C 216.648438 253.105469 214.683594 249.53125 213.453125 243.011719 C 212.726562 238.5 210.851562 236.480469 207.542969 236.644531 C 207.453125 236.652344 207.378906 236.625 207.3125 236.566406 C 207.25 236.507812 207.214844 236.433594 207.214844 236.347656 C 207.207031 236.261719 207.234375 236.1875 207.292969 236.121094 C 207.351562 236.058594 207.425781 236.023438 207.511719 236.019531 C 211.15625 235.835938 213.296875 238.085938 214.070312 242.90625 C 215.234375 249.019531 217.058594 252.511719 219.230469 252.71875 C 221.277344 252.917969 223.652344 250.195312 225.546875 245.460938 C 226.078125 244.105469 226.515625 242.71875 226.859375 241.300781 L 230.433594 227.085938 C 230.730469 225.871094 231.101562 224.679688 231.550781 223.511719 C 232.980469 219.847656 234.539062 218.011719 236.300781 217.902344 C 238.0625 217.796875 240.089844 219.597656 242.125 223.417969 C 242.769531 224.636719 243.316406 225.902344 243.757812 227.207031 C 246.246094 234.15625 249.472656 234.34375 252.601562 233.523438 Z M 252.664062 233.460938 " fill-opacity="1" fill-rule="nonzero"/><path fill="#fbb72e" d="M 207.515625 213.746094 L 207.515625 240.523438 C 207.523438 242.710938 207.160156 244.832031 206.429688 246.894531 C 205.699219 248.957031 204.640625 250.832031 203.253906 252.523438 C 199.507812 257.066406 194.253906 260.433594 187.617188 262.726562 C 180.988281 260.433594 175.726562 257.039062 171.984375 252.523438 C 170.601562 250.832031 169.542969 248.953125 168.8125 246.894531 C 168.082031 244.832031 167.71875 242.710938 167.726562 240.523438 L 167.726562 213.746094 C 176.085938 216.144531 182.71875 215.132812 187.617188 210.714844 C 192.519531 215.132812 199.152344 216.144531 207.515625 213.746094 Z M 207.515625 213.746094 " fill-opacity="1" fill-rule="nonzero"/><path fill="#231f20" d="M 186.570312 241.648438 C 186.324219 241.640625 186.113281 241.554688 185.9375 241.382812 L 178.554688 234.28125 C 178.457031 234.199219 178.375 234.097656 178.316406 233.980469 C 178.257812 233.863281 178.222656 233.738281 178.214844 233.605469 C 178.210938 233.472656 178.226562 233.347656 178.273438 233.222656 C 178.320312 233.097656 178.390625 232.988281 178.480469 232.894531 C 178.574219 232.800781 178.679688 232.726562 178.800781 232.675781 C 178.921875 232.628906 179.050781 232.605469 179.183594 232.605469 C 179.3125 232.609375 179.441406 232.636719 179.558594 232.695312 C 179.679688 232.75 179.78125 232.824219 179.871094 232.925781 L 186.5625 239.398438 L 198.5625 227.597656 C 198.75 227.414062 198.972656 227.324219 199.234375 227.324219 C 199.496094 227.328125 199.71875 227.421875 199.90625 227.609375 C 200.089844 227.796875 200.179688 228.019531 200.175781 228.28125 C 200.175781 228.542969 200.082031 228.765625 199.894531 228.949219 L 187.207031 241.402344 C 187.027344 241.566406 186.816406 241.648438 186.570312 241.648438 Z M 186.570312 241.648438 " fill-opacity="1" fill-rule="nonzero"/><path fill="#231f20" d="M 75.210938 202.195312 C 74.949219 202.195312 74.726562 202.101562 74.542969 201.917969 C 74.355469 201.730469 74.265625 201.507812 74.265625 201.246094 L 74.265625 197.457031 C 74.265625 197.195312 74.355469 196.972656 74.542969 196.785156 C 74.726562 196.601562 74.949219 196.507812 75.210938 196.507812 C 75.472656 196.507812 75.695312 196.601562 75.882812 196.785156 C 76.066406 196.972656 76.160156 197.195312 76.160156 197.457031 L 76.160156 201.246094 C 76.160156 201.507812 76.066406 201.730469 75.882812 201.917969 C 75.695312 202.101562 75.472656 202.195312 75.210938 202.195312 Z M 75.210938 202.195312 " fill-opacity="1" fill-rule="nonzero"/><path fill="#231f20" d="M 75.210938 233.738281 C 74.949219 233.738281 74.726562 233.648438 74.542969 233.460938 C 74.355469 233.277344 74.265625 233.054688 74.265625 232.792969 L 74.265625 224.910156 C 74.265625 224.648438 74.355469 224.421875 74.542969 224.238281 C 74.726562 224.054688 74.949219 223.960938 75.210938 223.960938 C 75.472656 223.960938 75.695312 224.054688 75.882812 224.238281 C 76.066406 224.421875 76.160156 224.648438 76.160156 224.910156 L 76.160156 232.792969 C 76.160156 233.054688 76.066406 233.277344 75.882812 233.460938 C 75.695312 233.648438 75.472656 233.738281 75.210938 233.738281 Z M 75.210938 217.949219 C 74.949219 217.949219 74.726562 217.855469 74.542969 217.671875 C 74.355469 217.484375 74.265625 217.261719 74.265625 217 L 74.265625 209.136719 C 74.265625 208.875 74.355469 208.652344 74.542969 208.464844 C 74.726562 208.28125 74.949219 208.1875 75.210938 208.1875 C 75.472656 208.1875 75.695312 208.28125 75.882812 208.464844 C 76.066406 208.652344 76.160156 208.875 76.160156 209.136719 L 76.160156 217.019531 C 76.160156 217.28125 76.066406 217.503906 75.882812 217.6875 C 75.695312 217.875 75.472656 217.964844 75.210938 217.964844 Z M 75.210938 217.949219 " fill-opacity="1" fill-rule="nonzero"/><path fill="#231f20" d="M 79 245.417969 L 75.210938 245.417969 C 74.949219 245.417969 74.726562 245.324219 74.542969 245.140625 C 74.355469 244.957031 74.265625 244.734375 74.265625 244.472656 L 74.265625 240.679688 C 74.265625 240.417969 74.355469 240.195312 74.542969 240.011719 C 74.726562 239.824219 74.949219 239.734375 75.210938 239.734375 C 75.472656 239.734375 75.695312 239.824219 75.882812 240.011719 C 76.066406 240.195312 76.160156 240.417969 76.160156 240.679688 L 76.160156 243.523438 L 79 243.523438 C 79.261719 243.523438 79.484375 243.617188 79.671875 243.800781 C 79.855469 243.984375 79.949219 244.210938 79.949219 244.472656 C 79.949219 244.734375 79.855469 244.957031 79.671875 245.140625 C 79.484375 245.324219 79.261719 245.417969 79 245.417969 Z M 79 245.417969 " fill-opacity="1" fill-rule="nonzero"/><path fill="#231f20" d="M 105.308594 245.417969 L 98.734375 245.417969 C 98.472656 245.417969 98.25 245.324219 98.066406 245.140625 C 97.878906 244.957031 97.789062 244.734375 97.789062 244.472656 C 97.789062 244.210938 97.878906 243.984375 98.066406 243.800781 C 98.25 243.617188 98.472656 243.523438 98.734375 243.523438 L 105.308594 243.523438 C 105.570312 243.523438 105.792969 243.617188 105.980469 243.800781 C 106.164062 243.984375 106.257812 244.210938 106.257812 244.472656 C 106.257812 244.734375 106.164062 244.957031 105.980469 245.140625 C 105.792969 245.324219 105.570312 245.417969 105.308594 245.417969 Z M 92.167969 245.417969 L 85.59375 245.417969 C 85.332031 245.417969 85.109375 245.324219 84.921875 245.140625 C 84.738281 244.957031 84.644531 244.734375 84.644531 244.472656 C 84.644531 244.210938 84.738281 243.984375 84.921875 243.800781 C 85.109375 243.617188 85.332031 243.523438 85.59375 243.523438 L 92.167969 243.523438 C 92.429688 243.523438 92.652344 243.617188 92.835938 243.800781 C 93.023438 243.984375 93.113281 244.210938 93.113281 244.472656 C 93.113281 244.734375 93.023438 244.957031 92.835938 245.140625 C 92.652344 245.324219 92.429688 245.417969 92.167969 245.417969 Z M 92.167969 245.417969 " fill-opacity="1" fill-rule="nonzero"/><path fill="#231f20" d="M 115.671875 245.417969 L 111.882812 245.417969 C 111.621094 245.417969 111.398438 245.324219 111.214844 245.140625 C 111.027344 244.957031 110.9375 244.734375 110.9375 244.472656 C 110.9375 244.210938 111.027344 243.984375 111.214844 243.800781 C 111.398438 243.617188 111.621094 243.523438 111.882812 243.523438 L 115.671875 243.523438 C 115.933594 243.523438 116.15625 243.617188 116.339844 243.800781 C 116.527344 243.984375 116.617188 244.210938 116.617188 244.472656 C 116.617188 244.734375 116.527344 244.957031 116.339844 245.140625 C 116.15625 245.324219 115.933594 245.417969 115.671875 245.417969 Z M 115.671875 245.417969 " fill-opacity="1" fill-rule="nonzero"/><path fill="#231f20" d="M 300.027344 202.195312 C 299.765625 202.195312 299.539062 202.101562 299.355469 201.917969 C 299.171875 201.730469 299.078125 201.507812 299.078125 201.246094 L 299.078125 197.457031 C 299.078125 197.195312 299.171875 196.972656 299.355469 196.785156 C 299.539062 196.601562 299.765625 196.507812 300.027344 196.507812 C 300.289062 196.507812 300.511719 196.601562 300.695312 196.785156 C 300.878906 196.972656 300.972656 197.195312 300.972656 197.457031 L 300.972656 201.246094 C 300.972656 201.507812 300.878906 201.730469 300.695312 201.917969 C 300.511719 202.101562 300.289062 202.195312 300.027344 202.195312 Z M 300.027344 202.195312 " fill-opacity="1" fill-rule="nonzero"/><path fill="#231f20" d="M 300.027344 233.738281 C 299.765625 233.738281 299.539062 233.648438 299.355469 233.460938 C 299.171875 233.277344 299.078125 233.054688 299.078125 232.792969 L 299.078125 224.910156 C 299.078125 224.648438 299.171875 224.421875 299.355469 224.238281 C 299.539062 224.054688 299.765625 223.960938 300.027344 223.960938 C 300.289062 223.960938 300.511719 224.054688 300.695312 224.238281 C 300.878906 224.421875 300.972656 224.648438 300.972656 224.910156 L 300.972656 232.792969 C 300.972656 233.054688 300.878906 233.277344 300.695312 233.460938 C 300.511719 233.648438 300.289062 233.738281 300.027344 233.738281 Z M 300.027344 217.949219 C 299.765625 217.949219 299.539062 217.855469 299.355469 217.671875 C 299.171875 217.484375 299.078125 217.261719 299.078125 217 L 299.078125 209.136719 C 299.078125 208.875 299.171875 208.652344 299.355469 208.464844 C 299.539062 208.28125 299.765625 208.1875 300.027344 208.1875 C 300.289062 208.1875 300.511719 208.28125 300.695312 208.464844 C 300.878906 208.652344 300.972656 208.875 300.972656 209.136719 L 300.972656 217.019531 C 300.972656 217.28125 300.878906 217.503906 300.695312 217.6875 C 300.511719 217.875 300.289062 217.964844 300.027344 217.964844 Z M 300.027344 217.949219 " fill-opacity="1" fill-rule="nonzero"/><path fill="#231f20" d="M 300.027344 245.417969 L 296.238281 245.417969 C 295.976562 245.417969 295.75 245.324219 295.566406 245.140625 C 295.382812 244.957031 295.289062 244.734375 295.289062 244.472656 C 295.289062 244.210938 295.382812 243.984375 295.566406 243.800781 C 295.75 243.617188 295.976562 243.523438 296.238281 243.523438 L 299.078125 243.523438 L 299.078125 240.679688 C 299.078125 240.417969 299.171875 240.195312 299.355469 240.011719 C 299.539062 239.824219 299.765625 239.734375 300.027344 239.734375 C 300.289062 239.734375 300.511719 239.824219 300.695312 240.011719 C 300.878906 240.195312 300.972656 240.417969 300.972656 240.679688 L 300.972656 244.472656 C 300.972656 244.734375 300.878906 244.957031 300.695312 245.140625 C 300.511719 245.324219 300.289062 245.417969 300.027344 245.417969 Z M 300.027344 245.417969 " fill-opacity="1" fill-rule="nonzero"/><path fill="#231f20" d="M 289.65625 245.417969 L 283.082031 245.417969 C 282.820312 245.417969 282.597656 245.324219 282.414062 245.140625 C 282.226562 244.957031 282.136719 244.734375 282.136719 244.472656 C 282.136719 244.210938 282.226562 243.984375 282.414062 243.800781 C 282.597656 243.617188 282.820312 243.523438 283.082031 243.523438 L 289.65625 243.523438 C 289.917969 243.523438 290.140625 243.617188 290.324219 243.800781 C 290.511719 243.984375 290.605469 244.210938 290.605469 244.472656 C 290.605469 244.734375 290.511719 244.957031 290.324219 245.140625 C 290.140625 245.324219 289.917969 245.417969 289.65625 245.417969 Z M 276.507812 245.417969 L 269.933594 245.417969 C 269.671875 245.417969 269.449219 245.324219 269.265625 245.140625 C 269.078125 244.957031 268.988281 244.734375 268.988281 244.472656 C 268.988281 244.210938 269.078125 243.984375 269.265625 243.800781 C 269.449219 243.617188 269.671875 243.523438 269.933594 243.523438 L 276.507812 243.523438 C 276.769531 243.523438 276.992188 243.617188 277.179688 243.800781 C 277.363281 243.984375 277.457031 244.210938 277.457031 244.472656 C 277.457031 244.734375 277.363281 244.957031 277.179688 245.140625 C 276.992188 245.324219 276.769531 245.417969 276.507812 245.417969 Z M 276.507812 245.417969 " fill-opacity="1" fill-rule="nonzero"/><path fill="#231f20" d="M 263.398438 245.417969 L 259.609375 245.417969 C 259.347656 245.417969 259.125 245.324219 258.941406 245.140625 C 258.753906 244.957031 258.664062 244.734375 258.664062 244.472656 C 258.664062 244.210938 258.753906 243.984375 258.941406 243.800781 C 259.125 243.617188 259.347656 243.523438 259.609375 243.523438 L 263.398438 243.523438 C 263.660156 243.523438 263.882812 243.617188 264.070312 243.800781 C 264.253906 243.984375 264.347656 244.210938 264.347656 244.472656 C 264.347656 244.734375 264.253906 244.957031 264.070312 245.140625 C 263.882812 245.324219 263.660156 245.417969 263.398438 245.417969 Z M 263.398438 245.417969 " fill-opacity="1" fill-rule="nonzero"/><g clip-path="url(#ac25a5bf7c)"><path fill="#e1e6f5" d="M 345.492188 104.679688 L 345.492188 105.019531 L 286.601562 128.351562 C 286.5625 128.359375 286.523438 128.359375 286.484375 128.351562 C 286.34375 128.355469 286.246094 128.289062 286.195312 128.15625 C 286.164062 128.074219 286.167969 127.996094 286.199219 127.914062 C 286.234375 127.832031 286.292969 127.773438 286.371094 127.742188 L 345.070312 104.488281 Z M 345.492188 104.679688 " fill-opacity="1" fill-rule="nonzero"/></g><g clip-path="url(#3e64b39717)"><path fill="#e1e6f5" d="M 89.046875 128.164062 C 88.996094 128.292969 88.898438 128.359375 88.757812 128.359375 L 88.636719 128.359375 L 29.742188 105.011719 L 29.742188 104.679688 L 30.171875 104.507812 L 88.871094 127.757812 C 88.953125 127.792969 89.007812 127.851562 89.042969 127.933594 C 89.078125 128.011719 89.078125 128.09375 89.046875 128.175781 Z M 89.046875 128.164062 " fill-opacity="1" fill-rule="nonzero"/></g></svg>