<svg xmlns="http://www.w3.org/2000/svg" xmlns:xlink="http://www.w3.org/1999/xlink" width="500" zoomAndPan="magnify" viewBox="0 0 375 374.999991" height="500" preserveAspectRatio="xMidYMid meet" version="1.0"><defs><clipPath id="8003d0650a"><path d="M 44.527344 24 L 330 24 L 330 350.605469 L 44.527344 350.605469 Z M 44.527344 24 " clip-rule="nonzero"/></clipPath><clipPath id="ac797efbd5"><path d="M 47 25.316406 L 229.460938 25.316406 L 229.460938 64.597656 L 47 64.597656 Z M 47 25.316406 " clip-rule="nonzero"/></clipPath><clipPath id="f59fc3294e"><path d="M 53.964844 49.878906 C 62.132812 43.667969 63.433594 44 64.417969 44.648438 C 65.558594 45.464844 66.871094 47.097656 66.871094 48.730469 C 66.699219 52.167969 59.519531 61.3125 56.738281 63.433594 C 55.433594 64.417969 54.285156 64.582031 53.148438 64.417969 C 51.675781 64.25 49.71875 63.109375 48.902344 61.96875 C 48.246094 60.984375 48.085938 59.679688 48.246094 58.207031 C 48.40625 56.082031 49.0625 51.835938 50.859375 50.535156 C 52.816406 49.226562 58.863281 49.226562 60.003906 50.535156 C 60.820312 51.511719 59.84375 53.964844 59.519531 55.597656 C 59.1875 56.898438 58.703125 58.207031 57.886719 59.1875 C 57.070312 60.003906 55.597656 60.660156 54.285156 60.820312 C 53.148438 60.820312 51.511719 60.335938 50.535156 59.679688 C 49.71875 58.863281 49.0625 57.886719 48.570312 56.253906 C 47.429688 52.816406 46.773438 42.851562 47.097656 38.113281 C 47.429688 35.179688 47.753906 32.394531 48.902344 30.601562 C 49.878906 29.128906 51.835938 27.828125 53.308594 27.664062 C 54.617188 27.335938 56.253906 27.828125 57.230469 28.644531 C 58.371094 29.621094 58.703125 33.214844 59.679688 33.382812 C 60.660156 33.382812 61.636719 29.785156 62.949219 29.300781 C 63.925781 28.804688 65.398438 29.300781 66.375 29.785156 C 67.515625 30.4375 68.828125 31.578125 69.148438 32.890625 C 69.644531 34.523438 69.148438 37.789062 67.847656 39.261719 C 66.214844 40.894531 62.132812 41.875 60.003906 41.21875 C 58.207031 40.734375 56.082031 38.113281 55.597656 36.316406 C 55.265625 35.015625 55.921875 33.382812 56.574219 32.394531 C 57.390625 31.257812 58.703125 30.117188 60.003906 29.945312 C 61.3125 29.945312 62.617188 31.578125 64.417969 32.074219 C 67.355469 32.726562 73.402344 31.257812 75.855469 32.566406 C 77.648438 33.382812 78.949219 35.179688 79.121094 36.8125 C 79.28125 38.605469 78.304688 41.21875 76.339844 42.851562 C 73.234375 45.632812 62.785156 48.730469 58.703125 48.40625 C 56.574219 48.40625 54.78125 47.589844 53.800781 46.449219 C 52.816406 45.300781 52.328125 42.851562 52.816406 41.21875 C 53.148438 39.746094 54.78125 38.285156 56.414062 37.46875 C 58.371094 36.480469 62.785156 35.664062 63.925781 36.8125 C 65.066406 37.953125 64.085938 44 62.949219 44.648438 C 61.800781 45.140625 57.886719 43.183594 57.230469 41.710938 C 56.738281 40.242188 57.714844 37.789062 58.703125 36.316406 C 59.679688 34.683594 61.3125 33.382812 63.109375 32.234375 C 65.558594 30.933594 70.136719 28.804688 72.417969 29.460938 C 74.050781 29.945312 75.523438 31.910156 76.015625 33.382812 C 76.5 34.523438 76.175781 36.316406 75.683594 37.46875 C 75.039062 38.445312 74.21875 39.585938 72.75 40.078125 C 70.136719 41.058594 63.109375 40.894531 60.660156 39.746094 C 59.347656 39.101562 58.53125 37.953125 58.046875 36.648438 C 57.554688 35.5 57.390625 33.867188 58.046875 32.726562 C 58.863281 31.09375 61.476562 29.128906 63.433594 28.96875 C 65.558594 28.804688 69.480469 30.601562 70.460938 32.234375 C 71.277344 33.867188 70.953125 37.296875 69.644531 38.769531 C 68.011719 40.5625 61.96875 41.21875 59.1875 40.734375 C 57.230469 40.5625 55.433594 39.421875 54.449219 38.285156 C 53.632812 37.296875 53.308594 35.5 53.46875 34.363281 C 53.632812 33.050781 54.125 31.75 55.433594 30.761719 C 57.714844 28.804688 65.066406 26.515625 68.332031 26.679688 C 70.460938 26.847656 72.253906 27.664062 73.234375 28.96875 C 74.21875 30.277344 74.542969 32.726562 74.050781 34.199219 C 73.726562 35.5 72.75 36.648438 71.601562 37.296875 C 69.964844 38.285156 65.882812 39.421875 64.582031 38.445312 C 63.109375 37.136719 63.109375 30.4375 64.417969 29.128906 C 65.066406 28.3125 67.355469 28.3125 68.503906 28.96875 C 69.644531 29.621094 70.953125 32.074219 70.785156 33.707031 C 70.785156 35.339844 69.644531 37.46875 68.332031 38.445312 C 67.03125 39.421875 64.90625 39.917969 63.433594 39.746094 C 61.96875 39.585938 60.660156 38.769531 59.679688 37.953125 C 58.863281 36.972656 58.207031 35.339844 58.207031 34.03125 C 58.207031 32.890625 58.863281 31.257812 59.679688 30.277344 C 60.496094 29.300781 61.476562 28.804688 63.269531 28.3125 C 66.539062 27.335938 75.199219 26.195312 79.28125 26.679688 C 81.894531 27.011719 82.710938 28.804688 85.65625 29.128906 C 91.371094 29.945312 107.214844 25.699219 111.953125 26.195312 C 113.910156 26.355469 114.886719 26.515625 115.875 27.335938 C 116.851562 28.3125 118.15625 30.4375 117.992188 32.074219 C 117.992188 33.542969 116.691406 35.179688 115.382812 36.480469 C 113.746094 38.113281 110.972656 39.261719 108.03125 40.242188 C 104.109375 41.550781 96.757812 42.691406 93.492188 42.195312 C 91.855469 42.035156 90.71875 41.875 89.738281 40.894531 C 88.75 39.917969 87.773438 37.46875 87.933594 35.996094 C 87.933594 34.683594 88.75 33.382812 89.738281 32.566406 C 90.554688 31.578125 92.835938 30.601562 93.328125 31.09375 C 94.144531 31.75 93.492188 37.953125 91.855469 39.261719 C 90.222656 40.5625 85.65625 40.402344 84.023438 39.101562 C 82.550781 37.953125 82.054688 33.867188 82.550781 32.074219 C 83.035156 30.4375 84.667969 28.804688 86.140625 28.152344 C 87.773438 27.496094 90.0625 27.496094 91.535156 28.152344 C 93.003906 28.804688 94.640625 30.761719 94.960938 32.234375 C 95.125 33.867188 94.46875 36.316406 93.328125 37.46875 C 92.019531 38.605469 89.082031 39.261719 87.289062 39.101562 C 85.484375 38.929688 83.367188 37.953125 82.550781 36.648438 C 81.570312 35.339844 81.238281 32.890625 81.894531 31.417969 C 82.386719 29.945312 83.851562 28.644531 85.816406 27.828125 C 89.40625 26.195312 98.390625 25.046875 102.3125 26.03125 C 104.761719 26.679688 106.890625 28.152344 107.707031 29.785156 C 108.355469 30.933594 108.191406 32.566406 107.707031 33.707031 C 107.214844 35.015625 106.398438 35.996094 104.925781 36.8125 C 102.152344 38.445312 93.984375 39.421875 90.71875 39.261719 C 88.921875 39.261719 87.773438 38.929688 86.796875 38.285156 C 85.65625 37.628906 84.507812 36.316406 84.34375 34.847656 C 84.183594 33.214844 85 30.117188 86.796875 28.804688 C 89.40625 27.011719 96.433594 28.96875 100.679688 28.3125 C 104.441406 27.828125 108.03125 25.539062 111.136719 25.539062 C 113.585938 25.699219 116.691406 26.355469 117.671875 27.828125 C 118.648438 29.128906 117.671875 34.03125 117.507812 34.03125 C 117.339844 34.03125 116.359375 30.277344 116.851562 28.804688 C 117.339844 27.496094 118.648438 26.355469 120.773438 25.863281 C 126.492188 24.066406 147.234375 28.96875 157.199219 28.96875 C 163.894531 28.96875 168.792969 27.335938 174.1875 27.496094 C 179.089844 27.664062 183.171875 29.621094 188.070312 29.785156 C 193.628906 29.785156 202.117188 27.171875 205.546875 27.828125 C 207.351562 28.3125 208.328125 28.96875 209.144531 29.785156 C 209.960938 30.761719 210.449219 32.394531 210.449219 33.707031 C 210.449219 34.847656 209.800781 36.480469 208.984375 37.46875 C 208.167969 38.285156 207.019531 38.769531 205.386719 39.261719 C 201.796875 39.917969 191.5 40.078125 187.75 38.605469 C 185.785156 37.789062 184.3125 36.480469 183.828125 35.179688 C 183.171875 33.867188 183.332031 32.234375 183.828125 30.933594 C 184.148438 29.785156 184.964844 28.644531 186.4375 27.988281 C 189.050781 26.679688 196.078125 25.699219 199.34375 26.679688 C 201.796875 27.171875 204.082031 28.804688 204.902344 30.277344 C 205.386719 31.578125 205.222656 33.214844 204.902344 34.363281 C 204.40625 35.664062 203.589844 36.8125 202.117188 37.46875 C 199.507812 38.929688 192.648438 39.261719 188.726562 39.261719 C 185.621094 39.101562 182.03125 39.101562 180.398438 37.789062 C 178.925781 36.648438 178.109375 34.199219 178.433594 32.726562 C 178.765625 30.933594 180.722656 28.644531 182.847656 27.664062 C 185.621094 26.355469 191.5 26.679688 194.769531 27.496094 C 197.550781 28.152344 200.648438 29.785156 201.796875 31.417969 C 202.613281 32.726562 202.613281 34.363281 202.28125 35.664062 C 201.957031 36.8125 201.300781 38.285156 200 39.101562 C 197.710938 40.402344 191.5 40.5625 188.726562 40.242188 C 187.09375 39.917969 185.785156 39.585938 184.804688 38.769531 C 183.828125 37.953125 183.011719 36.316406 182.847656 35.015625 C 182.679688 33.867188 183.171875 32.074219 183.828125 31.09375 C 184.644531 29.945312 185.460938 29.300781 187.253906 28.644531 C 191.996094 27.171875 210.941406 26.195312 215.1875 28.152344 C 216.820312 28.804688 217.476562 30.117188 217.96875 31.257812 C 218.453125 32.566406 218.613281 34.199219 217.96875 35.5 C 217.152344 36.972656 214.53125 39.101562 212.574219 39.261719 C 210.449219 39.421875 207.179688 38.285156 206.203125 36.8125 C 205.0625 35.179688 205.386719 31.578125 206.203125 29.945312 C 206.855469 28.804688 207.996094 27.988281 209.632812 27.664062 C 212.25 27.011719 221.066406 27.988281 221.066406 28.644531 C 221.234375 29.128906 216.003906 30.4375 216.003906 30.277344 C 216.003906 30.277344 220.742188 27.335938 222.699219 27.664062 C 224.332031 27.988281 226.136719 29.945312 226.621094 31.417969 C 227.113281 33.050781 225.644531 35.179688 225.804688 36.972656 C 225.964844 38.769531 227.769531 40.734375 227.769531 42.367188 C 227.597656 43.832031 227.113281 45.300781 226.136719 46.449219 C 225.320312 47.429688 223.847656 48.40625 222.539062 48.40625 C 220.742188 48.40625 217.636719 47.097656 216.496094 45.140625 C 215.023438 42.691406 215.839844 36.648438 216.660156 33.542969 C 217.152344 31.578125 217.796875 29.621094 219.109375 28.644531 C 220.582031 27.828125 223.191406 27.496094 224.664062 27.988281 C 226.136719 28.644531 227.597656 30.277344 228.253906 32.234375 C 229.566406 35.339844 229.070312 43.347656 228.417969 46.613281 C 228.253906 48.246094 227.929688 49.546875 226.953125 50.535156 C 226.136719 51.511719 224.664062 52.492188 223.191406 52.492188 C 221.558594 52.492188 218.453125 51.019531 217.3125 49.226562 C 216.003906 47.429688 216.335938 44.324219 216.335938 41.378906 C 216.164062 37.628906 215.347656 31.417969 216.980469 28.96875 C 218.128906 27.011719 221.066406 25.539062 222.867188 25.699219 C 224.824219 26.03125 226.953125 27.828125 227.929688 30.277344 C 229.886719 34.523438 229.726562 47.753906 227.597656 51.835938 C 226.296875 54.285156 223.515625 56.082031 221.558594 56.082031 C 219.765625 55.921875 216.496094 53.308594 216.003906 51.351562 C 215.679688 49.546875 217.476562 45.796875 219.109375 44.816406 C 220.417969 43.832031 223.191406 44 224.664062 44.816406 C 226.136719 45.464844 227.597656 47.753906 227.769531 49.386719 C 227.929688 51.019531 227.113281 53.46875 225.804688 54.617188 C 224.503906 55.597656 221.882812 56.414062 220.25 55.757812 C 218.613281 55.105469 216.820312 52.816406 215.839844 50.042969 C 214.53125 45.632812 215.1875 34.03125 216.496094 30.277344 C 216.980469 28.484375 217.796875 27.496094 218.785156 26.847656 C 219.925781 26.03125 221.558594 25.378906 222.867188 25.699219 C 224.664062 26.195312 226.953125 27.988281 227.929688 30.277344 C 229.726562 33.707031 229.070312 43.015625 228.417969 46.613281 C 228.253906 48.40625 227.929688 49.546875 226.953125 50.535156 C 226.136719 51.511719 224.503906 52.328125 223.191406 52.492188 C 221.882812 52.652344 220.25 52.167969 219.109375 51.511719 C 218.128906 50.695312 217.3125 49.546875 216.820312 47.914062 C 215.839844 44.816406 215.679688 37.136719 216.660156 33.542969 C 217.152344 31.417969 217.796875 29.621094 219.109375 28.644531 C 220.582031 27.828125 223.191406 27.664062 224.664062 27.988281 C 225.964844 28.484375 227.113281 29.621094 227.769531 30.933594 C 228.585938 32.394531 228.585938 35.179688 228.417969 37.46875 C 228.417969 39.917969 228.253906 43.347656 226.953125 45.140625 C 225.964844 46.773438 224.171875 48.246094 222.539062 48.40625 C 220.582031 48.40625 217.636719 46.9375 216.496094 45.140625 C 215.023438 43.015625 215.347656 38.113281 215.519531 35.339844 C 215.519531 33.214844 215.1875 31.09375 216.335938 29.785156 C 217.476562 28.484375 220.902344 27.171875 222.699219 27.664062 C 224.503906 28.152344 226.621094 31.09375 226.953125 32.890625 C 227.277344 34.199219 226.621094 35.832031 225.804688 36.972656 C 225.148438 37.953125 224.171875 38.605469 222.539062 38.929688 C 219.765625 39.746094 212.414062 39.917969 209.632812 39.101562 C 207.996094 38.605469 206.855469 37.953125 206.203125 36.8125 C 205.386719 35.179688 205.0625 31.578125 206.203125 29.945312 C 207.179688 28.484375 210.617188 27.496094 212.414062 27.496094 C 213.886719 27.496094 215.347656 28.152344 216.335938 28.96875 C 217.3125 29.785156 218.128906 31.417969 218.292969 32.726562 C 218.453125 34.03125 218.128906 35.664062 217.3125 36.648438 C 216.660156 37.789062 215.679688 38.445312 213.886719 39.101562 C 209.144531 40.5625 190.523438 41.875 185.945312 39.585938 C 183.988281 38.445312 183.171875 36.648438 182.847656 35.015625 C 182.679688 33.542969 183.332031 31.09375 184.804688 29.945312 C 187.09375 28.152344 194.28125 27.496094 197.378906 28.3125 C 199.507812 29.128906 201.796875 31.09375 202.28125 32.726562 C 202.773438 34.523438 201.300781 37.953125 200 39.101562 C 198.851562 39.917969 197.378906 40.242188 195.917969 40.078125 C 193.789062 39.746094 190.523438 36.15625 188.394531 36.316406 C 186.761719 36.480469 185.621094 39.101562 184.3125 39.261719 C 183.011719 39.421875 181.375 38.769531 180.398438 37.789062 C 179.25 36.648438 178.269531 34.199219 178.433594 32.726562 C 178.59375 31.09375 179.742188 29.300781 181.539062 28.152344 C 184.804688 26.195312 195.261719 25.539062 199.34375 26.679688 C 201.957031 27.171875 204.246094 28.644531 204.902344 30.277344 C 205.546875 32.074219 204.902344 35.339844 203.265625 36.648438 C 200.976562 38.929688 192.316406 39.261719 189.210938 38.769531 C 187.417969 38.605469 186.277344 38.445312 185.296875 37.46875 C 184.148438 36.15625 183.171875 32.726562 183.828125 30.933594 C 184.3125 29.300781 186.601562 27.988281 189.210938 27.335938 C 193.296875 26.195312 203.429688 26.515625 206.855469 28.3125 C 208.8125 29.128906 209.960938 30.933594 210.285156 32.234375 C 210.78125 33.542969 210.449219 35.179688 209.800781 36.316406 C 208.984375 37.46875 207.675781 38.445312 205.878906 39.101562 C 202.449219 40.5625 195.585938 41.058594 190.199219 41.058594 C 184.480469 40.894531 178.765625 39.101562 172.878906 38.929688 C 167.160156 38.769531 162.429688 40.078125 155.242188 40.242188 C 144.289062 40.242188 120.121094 39.917969 113.585938 37.789062 C 111.296875 36.972656 110.15625 36.316406 109.503906 35.015625 C 108.6875 33.542969 109.339844 28.96875 109.339844 28.96875 C 109.339844 28.96875 110.972656 35.832031 109.503906 37.628906 C 107.539062 40.078125 100.023438 39.917969 96.273438 40.078125 C 93.492188 40.078125 91.203125 40.078125 89.246094 39.261719 C 87.613281 38.605469 85.484375 37.628906 84.839844 36.15625 C 84.183594 34.523438 84.183594 31.417969 85.65625 29.785156 C 88.105469 27.011719 98.390625 25.214844 102.3125 26.03125 C 104.761719 26.515625 107.050781 27.988281 107.707031 29.785156 C 108.355469 31.417969 107.867188 34.523438 106.074219 35.996094 C 103.128906 38.769531 89.902344 40.402344 85.816406 38.929688 C 83.527344 38.113281 81.894531 35.664062 81.570312 34.03125 C 81.238281 32.726562 81.734375 31.09375 82.550781 30.117188 C 83.203125 29.128906 84.507812 28.152344 85.816406 27.828125 C 87.449219 27.335938 90.0625 27.496094 91.535156 28.152344 C 92.835938 28.644531 93.984375 29.785156 94.46875 30.933594 C 94.960938 32.394531 94.960938 35.015625 94.144531 36.316406 C 93.328125 37.628906 90.222656 39.585938 89.738281 39.101562 C 89.082031 38.605469 92.675781 33.382812 92.1875 31.578125 C 91.695312 30.277344 87.773438 29.300781 87.933594 28.96875 C 88.105469 28.644531 97.90625 29.621094 98.882812 31.75 C 99.863281 33.867188 95.617188 41.710938 93.492188 42.195312 C 92.019531 42.691406 88.921875 40.402344 88.265625 38.769531 C 87.613281 37.136719 87.933594 34.199219 89.738281 32.566406 C 93.003906 29.128906 110.320312 24.882812 114.566406 26.679688 C 116.691406 27.496094 117.992188 30.277344 117.992188 32.074219 C 117.992188 33.542969 117.175781 35.339844 115.382812 36.480469 C 111.136719 39.421875 92.511719 40.242188 86.632812 40.242188 C 84.023438 40.242188 82.710938 40.242188 81.078125 39.421875 C 79.28125 38.769531 76.175781 36.15625 76.339844 35.996094 C 76.5 35.832031 81.402344 37.46875 81.402344 37.953125 C 81.402344 38.605469 78.304688 39.101562 76.015625 39.261719 C 72.253906 39.746094 63.601562 40.5625 60.820312 38.769531 C 59.1875 37.789062 58.207031 35.664062 58.207031 34.03125 C 58.371094 32.234375 60.164062 29.460938 61.96875 28.644531 C 63.601562 27.828125 66.871094 27.988281 68.503906 28.96875 C 69.804688 29.785156 70.953125 32.074219 70.785156 33.707031 C 70.785156 35.5 68.828125 38.445312 67.03125 39.101562 C 64.90625 39.746094 60.335938 38.445312 58.53125 36.8125 C 57.230469 35.664062 56.414062 33.542969 56.738281 31.910156 C 57.070312 30.117188 59.519531 27.828125 61.636719 27.011719 C 64.085938 26.03125 68.988281 26.355469 71.117188 27.171875 C 72.417969 27.828125 73.402344 28.96875 73.890625 30.117188 C 74.382812 31.257812 74.542969 33.050781 74.050781 34.199219 C 73.566406 35.664062 70.296875 37.953125 70.296875 37.953125 C 70.296875 37.953125 72.910156 35.179688 72.75 35.015625 C 72.585938 34.847656 68.988281 38.113281 66.539062 39.101562 C 63.765625 40.078125 58.703125 41.21875 56.574219 40.078125 C 54.78125 39.101562 53.308594 36.15625 53.46875 34.363281 C 53.632812 32.566406 55.921875 30.277344 57.886719 29.460938 C 60.003906 28.484375 63.765625 28.644531 66.054688 29.300781 C 67.847656 29.785156 69.804688 30.933594 70.460938 32.234375 C 71.117188 33.867188 70.953125 37.46875 69.644531 38.769531 C 68.332031 40.242188 64.085938 40.894531 61.96875 40.242188 C 60.164062 39.585938 58.046875 36.972656 57.714844 35.339844 C 57.390625 34.03125 58.046875 32.394531 58.703125 31.417969 C 59.347656 30.4375 60.496094 29.460938 61.96875 29.128906 C 64.582031 28.484375 71.277344 28.484375 73.566406 30.117188 C 75.359375 31.257812 76.5 34.363281 76.175781 36.15625 C 75.855469 37.953125 73.402344 39.917969 71.601562 40.894531 C 69.964844 41.875 67.03125 42.691406 66.375 42.035156 C 65.558594 41.21875 67.355469 35.996094 68.332031 35.832031 C 69.320312 35.664062 72.417969 40.242188 72.09375 42.195312 C 71.769531 44.324219 67.847656 46.9375 65.398438 47.914062 C 63.433594 48.902344 60.660156 48.730469 58.703125 48.40625 C 57.230469 48.40625 55.921875 48.085938 54.78125 47.429688 C 53.800781 46.613281 52.816406 45.300781 52.652344 44 C 52.492188 42.367188 53.308594 39.746094 55.105469 38.113281 C 58.53125 35.179688 70.460938 31.09375 74.542969 32.074219 C 76.832031 32.726562 78.628906 35.179688 79.121094 36.8125 C 79.605469 38.113281 78.949219 39.746094 78.304688 40.894531 C 77.648438 42.035156 76.671875 43.015625 75.039062 43.347656 C 71.769531 44.164062 61.800781 42.367188 58.703125 40.734375 C 57.230469 39.917969 56.414062 38.929688 55.921875 37.789062 C 55.597656 36.480469 55.597656 34.847656 55.921875 33.542969 C 56.414062 32.394531 57.554688 31.257812 58.703125 30.4375 C 60.003906 29.621094 62.132812 28.96875 63.765625 29.300781 C 65.558594 29.621094 68.503906 31.257812 69.148438 32.890625 C 69.964844 34.363281 69.480469 36.8125 68.664062 38.285156 C 68.011719 39.421875 65.558594 40.734375 65.398438 40.5625 C 65.238281 40.5625 66.539062 39.261719 66.375 39.101562 C 66.054688 38.769531 62.132812 41.21875 60.164062 41.378906 C 58.371094 41.710938 56.738281 41.378906 55.105469 40.734375 C 53.46875 40.242188 51.351562 39.261719 50.042969 37.953125 C 49.0625 36.648438 48.246094 34.683594 48.246094 33.214844 C 48.246094 31.910156 48.902344 30.4375 49.71875 29.460938 C 50.535156 28.484375 52 27.828125 53.308594 27.664062 C 54.617188 27.496094 56.253906 27.828125 57.230469 28.644531 C 58.207031 29.300781 59.1875 30.4375 59.519531 31.910156 C 60.164062 34.523438 57.714844 39.421875 57.714844 43.183594 C 57.714844 47.269531 60.335938 52.492188 59.519531 55.597656 C 58.863281 57.714844 57.070312 59.84375 55.597656 60.496094 C 54.449219 60.984375 52.816406 60.820312 51.675781 60.335938 C 50.695312 59.84375 49.386719 58.863281 48.902344 57.554688 C 48.246094 55.265625 48.40625 48.902344 50.363281 47.097656 C 52.167969 45.140625 58.371094 44.816406 60.164062 46.121094 C 61.636719 47.097656 61.476562 49.878906 61.636719 51.835938 C 61.800781 53.632812 61.476562 55.433594 60.820312 57.230469 C 60.003906 59.347656 58.371094 62.292969 56.738281 63.433594 C 55.265625 64.25 53.148438 64.582031 51.835938 64.25 C 50.695312 63.925781 49.386719 62.949219 48.902344 61.96875 C 48.246094 60.660156 48.085938 58.863281 48.570312 57.070312 C 49.71875 53.632812 55.597656 46.613281 58.53125 44.980469 C 60.335938 44 61.96875 43.667969 63.269531 44.164062 C 64.742188 44.816406 66.699219 47.097656 66.871094 48.730469 C 66.871094 50.859375 64.582031 53.800781 62.949219 55.433594 C 61.3125 56.898438 58.863281 58.703125 57.070312 58.703125 C 55.433594 58.53125 52.984375 56.738281 52.492188 55.265625 C 52 53.800781 53.964844 49.878906 53.964844 49.878906 " clip-rule="nonzero"/></clipPath><clipPath id="f0a81781ba"><path d="M 95.632812 35 L 231.53125 35 L 231.53125 60.148438 L 95.632812 60.148438 Z M 95.632812 35 " clip-rule="nonzero"/></clipPath><clipPath id="13393b7590"><path d="M 95.78125 50.535156 C 95.941406 49.71875 95.941406 49.546875 95.941406 49.386719 C 96.101562 49.226562 96.101562 49.0625 96.101562 49.0625 C 96.101562 48.902344 96.101562 48.902344 96.101562 48.730469 C 96.273438 48.570312 96.433594 48.40625 96.433594 48.246094 C 96.597656 47.914062 96.597656 47.753906 96.757812 47.589844 C 96.757812 47.429688 96.917969 47.429688 96.917969 47.429688 C 97.089844 47.269531 97.089844 47.097656 97.089844 47.097656 C 97.25 46.9375 97.414062 46.773438 97.574219 46.613281 C 97.734375 46.449219 97.90625 46.28125 98.066406 46.121094 C 98.066406 46.121094 98.230469 46.121094 98.230469 45.957031 C 98.390625 45.957031 98.390625 45.796875 98.554688 45.796875 C 98.722656 45.796875 98.882812 45.632812 99.046875 45.632812 C 99.207031 45.464844 99.539062 45.300781 99.703125 45.300781 C 99.703125 45.140625 99.863281 45.140625 99.863281 45.140625 C 100.023438 45.140625 100.1875 45.140625 100.1875 44.980469 C 100.355469 44.980469 100.519531 44.980469 100.519531 44.980469 C 100.679688 44.816406 101.003906 44.484375 101.003906 44.484375 C 101.003906 44.484375 101.496094 44.164062 101.660156 44.164062 C 101.820312 44 102.3125 43.832031 102.3125 43.832031 C 102.3125 43.667969 101.820312 44 101.820312 44 C 101.660156 44 102.476562 43.667969 102.96875 43.183594 C 103.785156 42.527344 104.925781 41.058594 106.234375 40.242188 C 107.867188 39.261719 111.621094 38.445312 112.4375 38.113281 C 112.609375 38.113281 112.769531 37.953125 112.929688 37.953125 C 112.929688 37.953125 112.929688 37.953125 113.09375 37.953125 C 113.09375 37.953125 113.253906 37.789062 113.425781 37.789062 C 113.425781 37.789062 113.425781 37.953125 113.585938 37.953125 C 113.910156 38.113281 114.886719 38.113281 115.058594 38.113281 C 115.21875 38.113281 115.21875 38.113281 115.21875 38.113281 C 115.21875 38.113281 115.875 37.789062 115.875 37.789062 C 115.875 37.789062 116.359375 37.789062 116.519531 37.789062 C 116.851562 37.789062 117.175781 37.789062 117.175781 37.789062 C 117.175781 37.789062 117.671875 37.953125 117.992188 37.953125 C 118.15625 37.953125 118.648438 38.113281 118.648438 38.113281 C 118.648438 38.113281 119.140625 38.285156 119.140625 38.285156 C 119.140625 38.285156 119.140625 38.285156 119.304688 38.285156 C 119.304688 38.445312 119.625 38.605469 119.789062 38.605469 C 119.957031 38.605469 120.121094 38.113281 120.121094 38.113281 C 120.121094 38.113281 120.28125 37.789062 120.445312 37.628906 C 120.605469 37.46875 120.9375 37.136719 120.9375 37.136719 C 120.9375 37.136719 121.261719 36.8125 121.421875 36.648438 C 121.59375 36.648438 121.914062 36.316406 121.914062 36.316406 C 121.914062 36.316406 122.238281 36.15625 122.570312 36.15625 C 122.730469 35.996094 123.054688 35.832031 123.054688 35.832031 C 123.054688 35.832031 123.550781 35.832031 123.710938 35.664062 C 123.871094 35.664062 124.367188 35.664062 124.367188 35.664062 C 124.367188 35.664062 125.675781 35.5 126.492188 35.5 C 127.792969 35.5 130.40625 35.5 131.714844 35.5 C 132.371094 35.5 132.53125 35.5 133.1875 35.5 C 134.328125 35.5 136.617188 35.179688 137.59375 35.015625 C 137.925781 35.015625 138.089844 35.015625 138.410156 35.015625 C 138.742188 35.015625 138.90625 35.015625 139.066406 35.015625 C 139.230469 35.015625 139.722656 35.015625 139.722656 35.015625 C 139.722656 35.015625 140.046875 35.179688 140.378906 35.179688 C 140.539062 35.339844 140.863281 35.339844 140.863281 35.339844 C 141.023438 35.339844 141.355469 35.664062 141.515625 35.664062 C 141.679688 35.832031 142.011719 35.996094 142.011719 35.996094 C 142.011719 35.996094 142.335938 36.316406 142.496094 36.480469 C 142.65625 36.480469 142.65625 36.648438 142.828125 36.8125 C 142.988281 36.8125 143.152344 36.8125 143.152344 36.8125 C 143.152344 36.8125 143.644531 36.8125 143.804688 36.8125 C 143.96875 36.972656 144.460938 36.972656 144.460938 36.972656 C 144.460938 36.972656 144.785156 37.296875 144.945312 37.296875 C 145.109375 37.46875 145.441406 37.628906 145.441406 37.628906 C 145.441406 37.628906 145.761719 37.953125 145.925781 37.953125 C 146.09375 38.113281 146.417969 38.445312 146.417969 38.445312 C 146.417969 38.445312 146.417969 38.605469 146.578125 38.605469 C 146.910156 38.769531 148.375 38.113281 149.683594 37.953125 C 151.8125 37.46875 155.5625 36.972656 158.347656 36.480469 C 160.796875 36.15625 162.914062 35.664062 165.363281 35.664062 C 167.816406 35.664062 171.414062 36.316406 172.878906 36.15625 C 173.695312 36.15625 174.511719 35.996094 174.511719 35.996094 C 174.511719 35.996094 175.003906 35.996094 175.164062 36.15625 C 175.328125 36.15625 175.820312 36.15625 175.820312 36.15625 C 175.820312 36.15625 176.3125 36.316406 176.476562 36.316406 C 176.636719 36.316406 177.132812 36.480469 177.132812 36.480469 C 177.132812 36.480469 177.453125 36.8125 177.617188 36.8125 C 177.777344 36.972656 178.269531 37.136719 178.269531 37.136719 C 178.269531 37.136719 178.59375 37.46875 178.765625 37.628906 C 178.925781 37.789062 179.25 38.113281 179.25 38.113281 C 179.25 38.113281 179.410156 38.605469 179.582031 38.769531 C 179.582031 38.929688 179.90625 39.261719 179.90625 39.261719 C 179.90625 39.261719 179.90625 39.746094 180.066406 39.746094 C 180.226562 39.917969 180.558594 39.746094 180.882812 39.746094 C 182.03125 39.421875 184.480469 38.605469 186.4375 38.113281 C 188.394531 37.628906 190.523438 36.8125 192.480469 36.648438 C 194.28125 36.648438 195.917969 36.8125 197.710938 37.296875 C 199.507812 37.789062 202.117188 39.261719 202.933594 39.746094 C 203.265625 39.917969 203.265625 40.242188 203.429688 40.242188 C 203.753906 40.242188 204.082031 39.585938 204.730469 39.261719 C 205.878906 38.605469 208.167969 37.296875 209.960938 37.136719 C 211.433594 37.136719 213.390625 37.789062 214.703125 38.769531 C 216.003906 39.746094 217.476562 41.550781 217.96875 43.015625 C 218.292969 44.164062 217.3125 46.121094 217.796875 46.773438 C 218.128906 47.097656 218.785156 46.773438 219.433594 46.9375 C 220.742188 46.9375 223.355469 47.269531 224.664062 47.269531 C 225.320312 47.429688 225.964844 47.269531 226.460938 47.269531 C 226.953125 47.429688 227.277344 47.429688 227.597656 47.429688 C 228.09375 47.589844 228.417969 47.753906 228.746094 47.914062 C 229.070312 48.085938 229.402344 48.40625 229.726562 48.570312 C 230.050781 48.902344 230.382812 49.226562 230.542969 49.546875 C 230.703125 49.878906 231.035156 50.203125 231.199219 50.535156 C 231.199219 50.859375 231.359375 51.351562 231.359375 51.675781 C 231.523438 52.167969 231.523438 52.492188 231.359375 52.984375 C 231.359375 53.308594 231.199219 53.800781 231.199219 54.125 C 231.035156 54.449219 230.703125 54.78125 230.542969 55.105469 C 230.382812 55.433594 230.050781 55.757812 229.726562 56.082031 C 229.402344 56.253906 229.070312 56.574219 228.746094 56.738281 C 228.417969 56.898438 228.09375 57.070312 227.597656 57.230469 C 227.277344 57.230469 226.460938 57.390625 226.460938 57.390625 C 226.460938 57.390625 225.320312 57.390625 224.664062 57.390625 C 223.03125 57.230469 220.417969 56.898438 218.292969 56.738281 C 216.003906 56.574219 213.066406 56.253906 211.101562 56.082031 C 209.632812 56.082031 208.652344 55.921875 207.351562 56.082031 C 205.878906 56.253906 204.40625 57.070312 202.933594 57.070312 C 201.140625 57.230469 197.550781 56.253906 197.054688 56.414062 C 196.894531 56.574219 196.402344 56.898438 196.402344 56.898438 C 196.402344 56.898438 196.078125 57.230469 195.917969 57.230469 C 195.585938 57.390625 195.261719 57.714844 195.261719 57.714844 C 195.261719 57.714844 194.769531 57.886719 194.605469 57.886719 C 194.28125 57.886719 193.949219 58.046875 193.949219 58.046875 C 193.949219 58.046875 193.464844 58.046875 193.132812 58.046875 C 192.972656 58.046875 192.480469 58.207031 192.480469 58.207031 C 192.480469 58.207031 191.996094 58.046875 191.832031 58.046875 C 191.5 57.886719 191.015625 57.886719 191.015625 57.886719 C 191.015625 57.886719 190.683594 57.714844 190.359375 57.554688 C 190.199219 57.390625 189.867188 57.230469 189.707031 57.230469 C 189.707031 57.230469 185.460938 57.230469 184.644531 57.230469 C 184.480469 57.230469 184.480469 57.230469 184.3125 57.230469 C 184.148438 57.230469 183.988281 57.390625 183.664062 57.390625 C 182.515625 57.390625 176.636719 57.070312 176.636719 57.070312 C 176.636719 57.070312 176.144531 57.070312 175.820312 57.070312 C 175.660156 57.070312 175.496094 56.898438 175.328125 56.898438 C 175.003906 57.070312 175.003906 57.554688 174.511719 57.714844 C 173.53125 58.046875 170.921875 57.886719 169.285156 57.886719 C 167.492188 57.886719 165.859375 58.046875 164.226562 58.207031 C 162.589844 58.207031 160.957031 58.53125 159.164062 58.703125 C 157.359375 58.863281 155.5625 59.1875 153.769531 59.1875 C 152.136719 59.1875 150.179688 59.027344 148.542969 58.53125 C 147.074219 58.207031 145.109375 56.414062 144.460938 56.738281 C 143.96875 57.070312 144.460938 58.371094 143.96875 58.863281 C 142.988281 59.84375 139.882812 60.003906 138.25 60.003906 C 136.941406 60.003906 134.820312 59.347656 134.820312 59.347656 C 134.820312 59.347656 134.328125 59.1875 134.167969 59.1875 C 134.003906 59.027344 133.511719 58.863281 133.511719 58.863281 C 133.511719 58.863281 133.1875 58.703125 133.027344 58.53125 C 132.855469 58.371094 132.371094 58.207031 132.371094 58.207031 C 132.371094 58.046875 132.371094 58.046875 132.371094 58.046875 C 132.371094 58.046875 132.039062 57.714844 131.878906 57.554688 C 131.878906 57.554688 131.878906 57.390625 131.714844 57.390625 C 131.554688 57.230469 130.898438 57.390625 130.40625 57.390625 C 129.757812 57.390625 128.125 57.390625 128.125 57.390625 C 128.125 57.390625 127.632812 57.390625 127.472656 57.230469 C 127.308594 57.230469 126.816406 57.230469 126.816406 57.230469 C 126.816406 57.230469 126.324219 57.070312 126.324219 57.070312 C 126.324219 57.070312 126.324219 57.070312 126.160156 57.070312 C 126.160156 57.070312 125.675781 57.390625 125.675781 57.554688 C 125.675781 57.554688 125.34375 57.714844 125.183594 57.714844 C 124.859375 57.886719 124.527344 58.046875 124.527344 58.046875 C 124.527344 58.207031 124.042969 58.207031 123.871094 58.371094 C 123.550781 58.371094 123.226562 58.53125 123.226562 58.53125 C 123.226562 58.53125 122.730469 58.53125 122.410156 58.53125 C 122.238281 58.53125 121.753906 58.53125 121.753906 58.53125 C 121.753906 58.53125 120.773438 58.046875 120.121094 57.886719 C 119.464844 57.886719 118.972656 58.046875 118.324219 57.886719 C 117.015625 57.714844 113.253906 55.921875 113.253906 55.921875 C 113.253906 55.921875 112.769531 55.757812 112.609375 55.757812 C 112.277344 55.921875 111.953125 56.574219 111.460938 56.738281 C 110.320312 57.070312 107.539062 56.738281 106.234375 56.738281 C 105.582031 56.898438 104.601562 56.898438 104.601562 56.898438 C 104.601562 56.898438 104.109375 56.738281 103.945312 56.738281 C 103.625 56.738281 103.128906 56.738281 103.128906 56.738281 C 103.128906 56.738281 102.96875 56.574219 102.808594 56.574219 C 102.476562 56.414062 102.152344 56.574219 101.820312 56.574219 C 101.660156 56.574219 101.496094 56.414062 101.171875 56.414062 C 101.003906 56.414062 100.839844 56.414062 100.519531 56.414062 C 100.519531 56.414062 100.355469 56.414062 100.355469 56.253906 C 100.1875 56.253906 100.023438 56.253906 100.023438 56.253906 C 99.863281 56.253906 99.539062 56.082031 99.371094 55.921875 C 99.207031 55.921875 99.046875 55.921875 98.882812 55.757812 C 98.722656 55.757812 98.722656 55.597656 98.554688 55.597656 C 98.554688 55.597656 98.390625 55.597656 98.230469 55.433594 C 98.230469 55.265625 98.066406 55.105469 97.90625 54.941406 C 97.734375 54.941406 97.414062 54.78125 97.414062 54.617188 C 97.25 54.449219 97.25 54.449219 97.25 54.285156 C 97.089844 54.285156 97.089844 54.285156 96.917969 54.125 C 96.917969 53.964844 96.757812 53.800781 96.597656 53.632812 C 96.597656 53.308594 96.433594 53.148438 96.273438 52.984375 C 96.273438 52.984375 96.273438 52.816406 96.273438 52.652344 C 96.273438 52.652344 96.101562 52.492188 96.101562 52.492188 C 96.101562 52.328125 96.101562 52 95.941406 51.835938 C 95.941406 51.675781 95.941406 51.351562 95.78125 51.179688 C 95.78125 51.019531 95.941406 51.019531 95.941406 50.859375 C 95.941406 50.859375 95.78125 50.535156 95.78125 50.535156 " clip-rule="nonzero"/></clipPath><clipPath id="ffbecc6ece"><path d="M 44.078125 32 L 125.871094 32 L 125.871094 185.910156 L 44.078125 185.910156 Z M 44.078125 32 " clip-rule="nonzero"/></clipPath><clipPath id="68f0b9ca17"><path d="M 44.324219 72.253906 C 44.648438 66.375 44.484375 65.238281 44.484375 65.238281 C 44.484375 65.238281 44.648438 64.90625 44.648438 64.742188 C 44.648438 64.417969 44.648438 64.085938 44.648438 64.085938 C 44.648438 64.085938 44.816406 63.601562 44.980469 63.433594 C 44.980469 63.269531 45.140625 62.949219 45.140625 62.949219 C 45.140625 62.949219 45.300781 62.617188 45.464844 62.292969 C 45.632812 62.132812 45.796875 61.800781 45.796875 61.800781 C 45.796875 61.800781 46.121094 61.636719 46.28125 61.476562 C 46.449219 61.3125 46.773438 60.984375 46.773438 60.984375 C 46.773438 60.984375 47.097656 60.820312 47.269531 60.660156 C 47.589844 60.660156 47.914062 60.496094 47.914062 60.496094 C 47.914062 60.496094 48.246094 60.335938 48.570312 60.335938 C 48.730469 60.335938 49.0625 60.164062 49.0625 60.164062 C 49.0625 60.164062 49.546875 60.164062 49.71875 60.164062 C 49.878906 60.164062 50.363281 60.164062 50.363281 60.164062 C 50.363281 60.164062 50.695312 60.335938 51.019531 60.335938 C 51.179688 60.335938 51.511719 60.496094 51.511719 60.496094 C 51.511719 60.496094 52 60.660156 52.167969 60.820312 C 52.328125 60.820312 52.652344 60.984375 52.652344 60.984375 C 52.652344 60.984375 52.984375 61.3125 53.148438 61.476562 C 53.308594 61.636719 53.632812 61.800781 53.632812 61.800781 C 53.632812 61.800781 53.632812 61.96875 53.632812 61.96875 C 53.632812 61.800781 53.632812 61.636719 53.632812 61.476562 C 53.800781 60.335938 54.78125 53.800781 55.433594 50.859375 C 55.921875 48.730469 57.070312 45.632812 57.070312 45.464844 C 57.070312 45.464844 57.070312 45.140625 57.230469 44.980469 C 57.230469 44.816406 57.230469 44.484375 57.230469 44.484375 C 57.230469 44.484375 57.390625 44.164062 57.554688 44 C 57.554688 43.667969 57.714844 43.347656 57.714844 43.347656 C 57.714844 43.347656 58.046875 43.015625 58.207031 43.015625 C 58.207031 42.851562 58.207031 42.851562 58.371094 42.691406 C 58.53125 42.367188 58.371094 40.242188 59.027344 39.746094 C 60.496094 38.929688 67.355469 41.058594 68.011719 41.875 C 68.171875 42.035156 68.011719 42.367188 68.171875 42.367188 C 68.332031 42.367188 68.828125 40.894531 69.644531 39.917969 C 70.785156 38.285156 73.402344 35.015625 75.683594 33.707031 C 77.8125 32.726562 80.585938 31.75 82.386719 32.566406 C 84.34375 33.214844 86.796875 37.46875 86.957031 38.445312 C 87.117188 38.769531 86.632812 38.929688 86.796875 39.101562 C 86.957031 39.261719 87.613281 38.769531 88.429688 38.769531 C 90.0625 38.445312 93.984375 38.285156 95.941406 38.113281 C 97.414062 37.953125 99.539062 37.789062 99.703125 37.628906 C 99.863281 37.628906 99.863281 37.628906 99.863281 37.628906 C 99.863281 37.628906 100.1875 37.46875 100.355469 37.296875 C 100.519531 37.136719 100.839844 36.972656 100.839844 36.972656 C 100.839844 36.972656 101.335938 36.8125 101.496094 36.8125 C 101.660156 36.648438 102.152344 36.648438 102.152344 36.648438 C 102.152344 36.648438 107.050781 36.480469 107.375 36.316406 C 107.375 36.316406 107.375 36.316406 107.375 36.15625 C 107.539062 36.15625 107.867188 35.832031 107.867188 35.832031 C 107.867188 35.832031 108.191406 35.5 108.523438 35.339844 C 108.6875 35.339844 109.007812 35.015625 109.007812 35.015625 C 109.007812 35.015625 109.503906 34.847656 109.664062 34.847656 C 109.824219 34.847656 110.320312 34.683594 110.320312 34.683594 C 110.320312 34.683594 110.640625 34.683594 110.972656 34.683594 C 111.136719 34.523438 111.296875 34.523438 111.296875 34.523438 C 111.296875 34.363281 115.058594 34.199219 116.199219 34.199219 C 116.851562 34.03125 117.339844 34.199219 117.832031 34.03125 C 118.15625 34.03125 118.648438 33.867188 118.972656 33.867188 C 119.304688 33.867188 119.464844 33.867188 119.625 33.867188 C 119.789062 33.707031 120.28125 33.707031 120.28125 33.707031 C 120.28125 33.707031 120.773438 33.707031 120.9375 33.707031 C 121.261719 33.867188 121.59375 33.867188 121.59375 33.867188 C 121.59375 33.867188 122.078125 34.03125 122.238281 34.03125 C 122.570312 34.199219 122.894531 34.363281 122.894531 34.363281 C 122.894531 34.363281 123.226562 34.523438 123.550781 34.683594 C 123.710938 34.847656 124.042969 35.015625 124.042969 35.015625 C 124.042969 35.179688 124.367188 35.5 124.527344 35.664062 C 124.6875 35.832031 124.859375 36.15625 124.859375 36.15625 C 124.859375 36.15625 125.183594 36.480469 125.183594 36.648438 C 125.34375 36.8125 125.503906 37.296875 125.503906 37.296875 C 125.503906 37.296875 125.675781 37.789062 125.675781 37.953125 C 125.835938 38.113281 125.835938 38.605469 125.835938 38.605469 C 125.835938 38.605469 125.835938 39.101562 125.835938 39.261719 C 125.835938 39.421875 125.835938 39.917969 125.835938 39.917969 C 125.835938 39.917969 125.835938 40.402344 125.675781 40.5625 C 125.675781 40.734375 125.503906 41.21875 125.503906 41.21875 C 125.503906 41.21875 125.34375 41.710938 125.34375 41.875 C 125.183594 42.035156 125.019531 42.367188 125.019531 42.367188 C 125.019531 42.527344 124.6875 42.851562 124.527344 43.015625 C 124.367188 43.183594 124.042969 43.507812 124.042969 43.507812 C 124.042969 43.507812 123.710938 43.667969 123.550781 43.832031 C 123.386719 44 122.894531 44.164062 122.894531 44.164062 C 122.894531 44.164062 122.570312 44.324219 122.410156 44.484375 C 122.078125 44.484375 121.753906 44.648438 121.753906 44.648438 C 121.59375 44.648438 117.507812 45.464844 115.382812 45.957031 C 113.09375 46.449219 109.339844 47.753906 108.03125 47.914062 C 107.707031 48.085938 107.539062 47.914062 107.214844 48.085938 C 107.050781 48.085938 106.890625 48.246094 106.71875 48.246094 C 106.558594 48.40625 106.234375 48.40625 106.074219 48.570312 C 106.074219 48.570312 106.234375 48.730469 106.398438 48.902344 C 106.398438 49.226562 106.558594 49.71875 106.558594 50.042969 C 106.71875 50.535156 106.71875 50.859375 106.558594 51.351562 C 106.558594 51.675781 106.558594 52.167969 106.398438 52.492188 C 106.234375 52.816406 106.074219 53.148438 105.742188 53.46875 C 105.582031 53.800781 105.257812 54.125 104.925781 54.449219 C 104.761719 54.78125 104.269531 54.941406 103.945312 55.105469 C 103.625 55.265625 103.292969 55.433594 102.808594 55.597656 C 102.476562 55.597656 101.820312 55.597656 101.820312 55.757812 C 101.820312 55.757812 101.496094 56.082031 101.335938 56.253906 C 101.171875 56.414062 100.839844 56.738281 100.839844 56.738281 C 100.839844 56.738281 100.519531 57.070312 100.355469 57.230469 C 100.1875 57.390625 99.863281 57.714844 99.863281 57.714844 C 99.703125 57.714844 99.371094 57.886719 99.207031 57.886719 C 98.882812 58.046875 98.554688 58.207031 98.554688 58.207031 C 98.554688 58.207031 98.066406 58.207031 97.734375 58.371094 C 97.574219 58.371094 97.089844 58.371094 97.089844 58.371094 C 97.089844 58.371094 94.308594 57.886719 93.652344 57.886719 C 93.492188 57.886719 93.492188 57.886719 93.167969 57.886719 C 92.511719 58.046875 90.0625 59.027344 88.265625 59.519531 C 86.632812 60.003906 83.367188 60.984375 82.871094 60.984375 C 82.710938 60.984375 82.710938 60.820312 82.710938 60.820312 C 82.386719 60.984375 82.710938 62.617188 82.550781 63.765625 C 82.386719 65.238281 81.570312 68.664062 81.570312 68.828125 C 81.570312 68.828125 81.734375 68.828125 81.734375 68.988281 C 81.894531 68.988281 82.21875 69.148438 82.21875 69.320312 C 82.21875 69.320312 82.550781 69.480469 82.710938 69.644531 C 82.710938 69.804688 83.035156 70.136719 83.035156 70.136719 C 83.035156 70.136719 83.203125 70.460938 83.367188 70.621094 C 83.367188 70.785156 83.691406 71.113281 83.691406 71.113281 C 83.691406 71.113281 83.691406 71.4375 83.851562 71.769531 C 83.851562 71.933594 84.023438 72.253906 84.023438 72.253906 C 84.023438 72.253906 84.023438 72.75 84.023438 72.910156 C 84.023438 73.070312 84.023438 73.234375 84.023438 73.402344 C 84.023438 73.566406 84.023438 73.726562 83.851562 74.050781 C 83.851562 74.382812 83.691406 74.867188 83.691406 75.523438 C 83.527344 76.832031 83.035156 79.121094 82.871094 80.917969 C 82.710938 82.710938 82.710938 84.667969 82.550781 86.140625 C 82.550781 87.289062 82.386719 88.589844 82.386719 89.082031 C 82.386719 89.40625 82.386719 89.570312 82.386719 89.738281 C 82.21875 89.902344 82.21875 90.386719 82.21875 90.386719 C 82.21875 90.386719 82.054688 90.878906 82.054688 90.878906 C 82.054688 91.039062 81.894531 91.039062 81.894531 91.039062 C 81.894531 91.039062 82.054688 91.203125 82.054688 91.203125 C 82.054688 91.855469 82.386719 95.941406 82.710938 98.066406 C 82.871094 100.023438 83.691406 102.636719 83.851562 103.625 C 83.851562 103.945312 83.851562 104.109375 83.851562 104.269531 C 83.851562 104.441406 83.851562 104.601562 83.851562 104.925781 C 83.851562 105.085938 84.023438 105.417969 84.023438 105.417969 C 84.023438 105.582031 83.851562 105.902344 83.851562 106.074219 C 83.851562 106.398438 83.691406 106.71875 83.691406 106.71875 C 83.691406 106.71875 83.527344 107.050781 83.367188 107.375 C 83.367188 107.539062 83.203125 107.867188 83.203125 107.867188 C 83.203125 107.867188 82.871094 108.191406 82.710938 108.355469 C 82.710938 108.523438 82.386719 108.847656 82.386719 108.847656 C 82.386719 108.847656 82.054688 109.171875 81.894531 109.171875 C 81.734375 109.339844 81.570312 109.503906 81.570312 109.503906 C 81.570312 109.503906 81.238281 109.664062 81.238281 109.824219 C 81.078125 109.988281 81.238281 110.480469 81.238281 111.136719 C 81.238281 112.277344 81.238281 114.566406 81.238281 116.199219 C 81.078125 117.671875 80.917969 119.625 80.917969 120.28125 C 80.917969 120.445312 80.917969 120.445312 80.917969 120.605469 C 81.078125 120.773438 81.078125 120.9375 81.238281 121.261719 C 81.238281 121.421875 81.402344 121.914062 81.402344 121.914062 C 81.402344 121.914062 81.570312 122.238281 81.570312 122.570312 C 81.570312 122.730469 81.570312 123.226562 81.570312 123.226562 C 81.570312 123.226562 81.570312 127.957031 81.734375 129.921875 C 81.894531 131.714844 81.894531 133.511719 82.054688 134.984375 C 82.21875 136.292969 82.386719 138.089844 82.550781 138.25 C 82.550781 138.410156 82.550781 138.410156 82.550781 138.410156 C 82.550781 138.410156 82.550781 138.90625 82.550781 139.066406 C 82.386719 139.066406 82.386719 139.230469 82.386719 139.390625 C 82.550781 139.390625 82.550781 139.390625 82.550781 139.390625 C 82.710938 139.5625 82.871094 144.128906 83.035156 146.257812 C 83.035156 148.050781 83.203125 149.523438 83.203125 151.15625 C 83.203125 153.113281 83.035156 155.242188 83.203125 157.199219 C 83.367188 159.164062 83.851562 161.121094 84.183594 162.914062 C 84.34375 164.710938 84.667969 166.34375 84.507812 167.976562 C 84.34375 169.609375 84.183594 171.574219 83.367188 172.878906 C 82.386719 174.347656 80.917969 175.984375 79.28125 176.3125 C 77.488281 176.636719 73.890625 175.660156 72.253906 174.1875 C 70.460938 172.554688 69.804688 167.652344 69.480469 166.179688 C 69.480469 165.695312 69.480469 165.042969 69.480469 165.042969 C 69.320312 165.042969 69.320312 165.203125 69.320312 165.203125 C 69.320312 165.203125 68.988281 165.527344 68.828125 165.527344 C 68.664062 165.695312 68.332031 166.019531 68.332031 166.019531 C 68.332031 166.019531 67.847656 166.179688 67.6875 166.179688 C 67.515625 166.34375 67.191406 166.511719 67.191406 166.511719 C 67.191406 166.511719 66.699219 166.511719 66.539062 166.511719 C 66.375 166.511719 65.882812 166.675781 65.882812 166.675781 C 65.882812 166.675781 65.558594 166.511719 65.238281 166.511719 C 65.066406 166.511719 64.742188 166.511719 64.742188 166.511719 C 64.742188 166.511719 64.25 166.34375 64.085938 166.34375 C 63.925781 166.179688 63.601562 166.179688 63.601562 166.179688 C 63.601562 166.179688 63.109375 165.859375 62.949219 165.859375 C 62.949219 165.695312 62.949219 165.695312 62.949219 165.695312 C 62.785156 165.695312 62.785156 167 62.785156 167.816406 C 62.785156 168.308594 62.617188 169.449219 62.617188 169.609375 C 62.617188 169.609375 62.785156 169.78125 62.785156 169.78125 C 62.785156 169.78125 62.949219 170.105469 63.109375 170.265625 C 63.269531 170.597656 63.433594 170.921875 63.433594 170.921875 C 63.433594 170.921875 63.601562 170.921875 63.601562 170.921875 C 63.601562 171.082031 63.601562 171.082031 63.601562 171.082031 C 63.601562 171.082031 63.601562 171.242188 63.601562 171.242188 C 63.601562 171.414062 63.765625 171.414062 63.765625 171.574219 C 63.765625 171.738281 63.925781 172.230469 63.925781 172.230469 C 63.925781 172.230469 63.925781 172.554688 64.085938 172.714844 C 64.085938 172.714844 64.085938 172.878906 64.085938 172.878906 C 64.085938 173.046875 64.085938 173.046875 64.085938 173.207031 C 64.085938 173.371094 64.085938 173.695312 64.085938 173.695312 C 64.085938 173.695312 64.085938 174.1875 64.085938 174.347656 C 63.925781 174.511719 63.925781 174.511719 63.925781 174.511719 C 63.925781 174.511719 63.925781 174.679688 63.925781 174.84375 C 63.925781 175.003906 63.925781 175.164062 63.925781 175.164062 C 63.925781 175.164062 63.601562 175.660156 63.601562 175.660156 C 63.601562 175.660156 63.601562 175.660156 63.601562 175.820312 C 63.601562 175.820312 63.433594 176.476562 63.433594 176.476562 C 63.269531 176.476562 62.453125 179.742188 62.453125 179.742188 C 62.453125 179.90625 62.453125 180.226562 62.453125 180.558594 C 62.292969 180.722656 62.292969 181.214844 62.292969 181.214844 C 62.292969 181.214844 62.132812 181.699219 62.132812 181.863281 C 61.96875 182.191406 61.800781 182.515625 61.800781 182.515625 C 61.800781 182.515625 61.476562 183.011719 61.476562 183.171875 C 61.3125 183.332031 60.984375 183.664062 60.984375 183.664062 C 60.984375 183.664062 60.660156 183.988281 60.496094 184.148438 C 60.335938 184.3125 60.003906 184.644531 60.003906 184.644531 C 59.84375 184.644531 59.519531 184.964844 59.347656 184.964844 C 59.027344 185.128906 58.703125 185.296875 58.703125 185.296875 C 58.703125 185.296875 58.207031 185.460938 58.046875 185.460938 C 57.714844 185.621094 57.230469 185.621094 57.230469 185.621094 C 57.230469 185.621094 56.738281 185.621094 56.574219 185.621094 C 56.414062 185.621094 55.921875 185.621094 55.921875 185.621094 C 55.921875 185.621094 55.433594 185.621094 55.105469 185.460938 C 54.941406 185.460938 54.449219 185.296875 54.449219 185.296875 C 54.449219 185.296875 54.125 185.128906 53.800781 184.964844 C 53.632812 184.964844 53.308594 184.644531 53.148438 184.644531 C 53.148438 184.644531 52.816406 184.3125 52.652344 184.148438 C 52.492188 183.988281 52.167969 183.664062 52.167969 183.664062 C 52.167969 183.664062 51.835938 183.332031 51.675781 183.171875 C 51.675781 183.011719 51.351562 182.515625 51.351562 182.515625 C 51.351562 182.515625 51.179688 182.191406 51.019531 181.863281 C 51.019531 181.699219 50.859375 181.214844 50.859375 181.214844 C 50.859375 181.214844 50.859375 180.722656 50.695312 180.558594 C 50.695312 180.226562 50.695312 179.90625 50.695312 179.742188 C 50.695312 179.742188 50.695312 178.269531 50.695312 177.453125 C 50.695312 175.984375 50.695312 174.027344 50.535156 172.230469 C 50.363281 170.597656 50.203125 168.964844 49.878906 167.160156 C 49.386719 165.042969 48.40625 162.589844 48.085938 160.464844 C 47.753906 158.667969 47.753906 157.199219 47.753906 155.402344 C 47.914062 153.769531 47.914062 151.15625 48.40625 150.339844 C 48.730469 149.847656 49.71875 150.007812 49.71875 149.683594 C 49.878906 149.363281 49.546875 149.03125 49.386719 148.542969 C 49.226562 147.558594 49.0625 145.109375 48.902344 143.472656 C 48.730469 141.679688 48.40625 139.722656 48.246094 138.410156 C 48.085938 137.273438 48.085938 135.960938 47.914062 135.800781 C 47.914062 135.800781 47.753906 135.308594 47.589844 135.144531 C 47.589844 134.984375 47.429688 134.488281 47.429688 134.488281 C 47.429688 134.488281 47.429688 134.167969 47.429688 133.84375 C 47.429688 133.671875 47.269531 133.1875 47.269531 133.1875 C 47.269531 133.1875 47.429688 132.210938 47.269531 131.554688 C 47.269531 130.246094 46.773438 128.609375 46.613281 126.976562 C 46.28125 125.019531 46.121094 122.730469 45.957031 120.773438 C 45.957031 119.140625 45.957031 115.875 45.957031 115.875 C 45.957031 115.875 45.957031 115.382812 45.957031 115.21875 C 45.957031 114.886719 46.121094 114.566406 46.121094 114.566406 C 46.121094 114.566406 46.28125 114.070312 46.28125 113.910156 C 46.449219 113.746094 46.613281 113.253906 46.613281 113.253906 C 46.613281 113.253906 46.773438 112.929688 46.9375 112.769531 C 47.097656 112.4375 47.269531 112.113281 47.269531 112.113281 C 47.269531 112.113281 47.589844 111.792969 47.753906 111.621094 C 47.914062 111.621094 48.246094 111.296875 48.246094 111.296875 C 48.40625 111.296875 48.570312 111.136719 48.570312 111.136719 C 48.570312 110.972656 48.730469 105.582031 48.570312 103.292969 C 48.570312 101.496094 48.570312 98.554688 48.570312 98.554688 C 48.570312 98.554688 48.570312 98.066406 48.730469 97.90625 C 48.730469 97.574219 48.730469 97.25 48.730469 97.25 C 48.730469 97.25 48.902344 96.757812 49.0625 96.597656 C 49.0625 96.433594 49.226562 96.273438 49.0625 96.273438 C 49.0625 96.101562 48.902344 96.101562 48.730469 96.101562 C 48.570312 96.101562 48.246094 95.941406 48.085938 95.941406 C 48.085938 95.941406 47.753906 95.78125 47.589844 95.617188 C 47.429688 95.617188 47.269531 95.285156 47.097656 95.285156 C 47.097656 95.285156 46.9375 95.125 46.773438 94.960938 C 46.613281 94.800781 46.449219 94.640625 46.449219 94.640625 C 46.449219 94.640625 46.121094 94.308594 46.121094 94.144531 C 45.957031 93.984375 45.796875 93.652344 45.796875 93.652344 C 45.796875 93.652344 45.632812 93.167969 45.632812 93.003906 C 45.464844 92.835938 45.464844 92.511719 45.464844 92.511719 C 45.464844 92.511719 45.464844 92.1875 45.464844 92.019531 C 45.300781 91.695312 45.300781 91.371094 45.300781 91.371094 C 45.300781 91.371094 44.980469 85.816406 44.816406 83.367188 C 44.648438 81.238281 44.648438 79.445312 44.484375 77.488281 C 44.484375 75.683594 44.324219 72.253906 44.324219 72.253906 M 63.433594 176.476562 C 63.601562 175.660156 63.601562 175.660156 63.601562 175.660156 C 63.765625 175.660156 63.765625 175.328125 63.765625 175.328125 C 63.765625 175.328125 63.433594 176.476562 63.433594 176.476562 " clip-rule="nonzero"/></clipPath><clipPath id="c0724540b8"><path d="M 45.871094 159.691406 L 84.589844 159.691406 L 84.589844 295.59375 L 45.871094 295.59375 Z M 45.871094 159.691406 " clip-rule="nonzero"/></clipPath><clipPath id="dbce241df7"><path d="M 45.957031 288.695312 C 45.957031 288.695312 46.121094 288.210938 46.121094 288.039062 C 46.28125 287.878906 46.28125 287.390625 46.28125 287.390625 C 46.28125 287.390625 46.613281 287.058594 46.613281 286.738281 C 46.773438 286.574219 46.9375 286.242188 46.9375 286.242188 C 46.9375 286.242188 47.269531 285.921875 47.429688 285.757812 C 47.589844 285.589844 47.753906 285.265625 47.753906 285.265625 C 47.753906 285.265625 48.246094 284.941406 48.40625 284.773438 C 48.40625 284.773438 48.570312 284.773438 48.570312 284.773438 C 48.570312 284.609375 48.570312 284.609375 48.570312 284.609375 C 48.570312 284.449219 48.570312 283.792969 48.570312 283.792969 C 48.570312 283.792969 48.570312 283.308594 48.730469 283.136719 C 48.730469 282.816406 48.730469 282.492188 48.730469 282.492188 C 48.730469 282.492188 49.0625 282 49.0625 281.835938 C 49.0625 281.675781 48.902344 281.675781 48.730469 281.34375 C 48.40625 280.527344 48.085938 277.097656 47.753906 275.140625 C 47.589844 273.507812 47.589844 271.875 47.429688 270.242188 C 47.429688 268.4375 47.589844 266.640625 47.429688 264.683594 C 47.269531 262.71875 46.9375 260.441406 46.773438 258.3125 C 46.613281 256.1875 46.613281 253.90625 46.449219 251.777344 C 46.449219 249.652344 46.449219 247.371094 46.613281 245.40625 C 46.613281 243.449219 46.773438 241.816406 47.097656 240.019531 C 47.269531 238.054688 47.589844 236.097656 47.753906 234.132812 C 47.914062 232.175781 47.914062 230.21875 48.085938 228.253906 C 48.085938 226.460938 48.40625 224.664062 48.40625 222.867188 C 48.40625 221.066406 48.085938 219.433594 47.914062 217.796875 C 47.914062 216.003906 47.589844 214.046875 47.753906 212.414062 C 47.753906 210.617188 48.246094 209.144531 48.246094 207.351562 C 48.246094 205.0625 47.589844 202.117188 47.429688 199.828125 C 47.269531 197.875 47.097656 196.402344 47.097656 194.769531 C 46.9375 192.972656 47.097656 191.339844 47.097656 189.542969 C 47.097656 187.75 47.097656 185.945312 47.097656 184.148438 C 47.097656 182.191406 47.429688 180.226562 47.429688 178.269531 C 47.429688 176.3125 47.429688 174.347656 47.429688 172.554688 C 47.429688 170.921875 46.9375 169.125 47.429688 167.652344 C 48.085938 166.019531 49.878906 163.40625 51.179688 163.078125 C 52 162.914062 52.816406 164.546875 53.964844 164.710938 C 55.265625 164.878906 57.714844 163.078125 58.703125 163.246094 C 59.027344 163.246094 59.027344 163.730469 59.347656 163.730469 C 60.164062 163.730469 61.476562 162.097656 62.949219 161.441406 C 64.742188 160.796875 67.515625 159.484375 69.320312 159.980469 C 70.953125 160.464844 72.75 162.257812 73.234375 163.894531 C 73.726562 165.363281 72.09375 169.125 72.253906 169.449219 C 72.417969 169.609375 74.542969 168.964844 75.683594 169.125 C 77.15625 169.609375 78.949219 170.597656 80.097656 172.058594 C 81.238281 173.53125 81.570312 176.476562 82.21875 178.269531 C 82.871094 179.742188 83.691406 181.863281 84.023438 182.355469 C 84.023438 182.355469 84.023438 182.515625 84.023438 182.515625 C 84.023438 182.515625 84.023438 182.515625 84.183594 182.679688 C 84.183594 182.679688 84.183594 182.847656 84.183594 182.847656 C 84.183594 182.847656 84.183594 183.011719 84.183594 183.171875 C 84.34375 183.332031 84.507812 183.828125 84.507812 183.828125 C 84.507812 183.828125 84.507812 184.3125 84.507812 184.644531 C 84.507812 184.804688 84.507812 185.296875 84.507812 185.296875 C 84.507812 185.296875 84.34375 185.785156 84.34375 185.945312 C 84.183594 186.277344 84.183594 186.601562 84.183594 186.761719 C 84.183594 186.761719 83.851562 187.09375 83.851562 187.253906 C 83.691406 187.578125 83.527344 187.910156 83.527344 187.910156 C 83.527344 187.910156 83.035156 188.394531 83.035156 188.566406 C 83.035156 188.566406 83.035156 188.566406 82.871094 188.566406 C 82.710938 189.050781 82.550781 191.996094 82.386719 193.789062 C 82.386719 195.421875 82.550781 197.054688 82.386719 198.691406 C 82.21875 200.484375 82.054688 203.097656 81.734375 203.914062 C 81.570312 204.40625 81.238281 204.246094 81.078125 204.570312 C 80.917969 205.222656 81.570312 206.855469 81.570312 208.167969 C 81.734375 209.800781 81.734375 213.714844 81.734375 213.714844 C 81.734375 213.886719 81.894531 214.207031 82.054688 214.371094 C 82.21875 214.53125 82.386719 215.023438 82.386719 215.023438 C 82.386719 215.023438 82.550781 215.519531 82.550781 215.679688 C 82.550781 215.839844 82.710938 216.335938 82.710938 216.335938 C 82.710938 216.335938 82.710938 216.820312 82.710938 216.980469 C 82.710938 217.3125 82.710938 217.636719 82.710938 217.636719 C 82.710938 217.636719 82.550781 218.128906 82.550781 218.292969 C 82.550781 218.613281 82.386719 218.945312 82.386719 219.109375 C 82.386719 219.109375 82.21875 219.433594 82.054688 219.601562 C 81.894531 219.765625 81.734375 220.25 81.734375 220.25 C 81.570312 220.417969 81.734375 221.398438 81.894531 221.882812 C 81.894531 222.699219 81.734375 224.007812 81.734375 224.332031 C 81.894531 224.332031 81.894531 224.503906 81.894531 224.503906 C 81.894531 224.503906 82.054688 224.824219 82.054688 225.148438 C 82.21875 225.320312 82.386719 225.644531 82.386719 225.644531 C 82.386719 225.644531 82.386719 226.136719 82.386719 226.460938 C 82.386719 226.621094 82.550781 227.113281 82.550781 227.113281 C 82.550781 227.113281 82.550781 231.035156 82.550781 231.851562 C 82.550781 232.015625 82.550781 232.015625 82.550781 232.339844 C 82.550781 233.15625 82.550781 237.570312 82.550781 237.730469 C 82.550781 237.730469 82.550781 238.054688 82.550781 238.386719 C 82.386719 238.550781 82.386719 239.035156 82.386719 239.035156 C 82.386719 239.035156 82.21875 239.527344 82.21875 239.6875 C 82.054688 239.851562 81.894531 240.34375 81.894531 240.34375 C 81.894531 240.34375 81.570312 240.667969 81.570312 240.835938 C 81.402344 241 81.078125 241.484375 81.078125 241.484375 C 81.078125 241.484375 80.753906 241.65625 80.753906 241.816406 C 80.753906 241.976562 80.753906 242.140625 80.753906 242.140625 C 80.753906 242.140625 80.917969 242.632812 80.917969 242.792969 C 80.917969 242.957031 80.917969 243.449219 80.917969 243.449219 C 80.917969 243.449219 80.753906 246.554688 80.917969 248.019531 C 81.078125 249.652344 81.894531 250.960938 82.054688 252.433594 C 82.386719 254.390625 82.550781 258.96875 82.550781 258.96875 C 82.550781 258.96875 82.550781 259.453125 82.550781 259.621094 C 82.550781 259.785156 82.550781 260.269531 82.550781 260.269531 C 82.550781 260.269531 82.550781 260.761719 82.386719 260.925781 C 82.386719 261.257812 82.21875 261.742188 82.21875 261.742188 C 82.21875 261.742188 82.054688 262.074219 81.894531 262.234375 C 81.734375 262.558594 81.570312 262.890625 81.570312 262.890625 C 81.570312 262.890625 81.238281 263.214844 81.078125 263.375 C 80.917969 263.535156 80.585938 263.867188 80.585938 264.03125 C 80.585938 264.03125 80.421875 264.03125 80.421875 264.03125 C 80.261719 264.351562 80.917969 265.339844 80.917969 266.320312 C 81.238281 267.621094 80.917969 269.585938 81.078125 271.542969 C 81.078125 273.507812 81.078125 275.625 81.402344 277.589844 C 81.734375 279.386719 82.386719 281.019531 82.710938 282.652344 C 83.035156 284.285156 83.367188 286.574219 83.367188 287.554688 C 83.367188 288.039062 83.035156 288.371094 83.035156 288.53125 C 83.035156 288.855469 83.203125 289.027344 83.203125 289.027344 C 83.203125 289.027344 83.203125 289.511719 83.203125 289.671875 C 83.203125 290.003906 83.203125 290.488281 83.203125 290.488281 C 83.203125 290.488281 83.035156 290.820312 83.035156 291.144531 C 82.871094 291.304688 82.871094 291.800781 82.871094 291.800781 C 82.871094 291.800781 82.550781 292.292969 82.550781 292.453125 C 82.386719 292.617188 82.054688 293.109375 82.054688 293.109375 C 82.054688 293.109375 81.894531 293.433594 81.734375 293.59375 C 81.570312 293.757812 81.238281 294.089844 81.238281 294.089844 C 81.238281 294.089844 80.753906 294.25 80.585938 294.410156 C 80.421875 294.574219 79.9375 294.90625 79.9375 294.90625 C 79.9375 294.90625 79.605469 295.066406 79.28125 295.066406 C 79.121094 295.226562 78.628906 295.390625 78.628906 295.390625 C 78.628906 295.390625 78.132812 295.390625 77.972656 295.390625 C 77.8125 295.390625 77.316406 295.390625 77.316406 295.390625 C 77.316406 295.390625 76.832031 295.390625 76.5 295.390625 C 76.339844 295.390625 75.855469 295.226562 75.855469 295.226562 C 75.855469 295.226562 75.523438 295.066406 75.199219 295.066406 C 75.039062 294.90625 74.542969 294.742188 74.542969 294.742188 C 74.542969 294.742188 74.050781 294.410156 74.050781 294.25 C 73.890625 294.25 73.890625 294.25 73.890625 294.25 C 73.402344 294.089844 70.460938 295.390625 68.828125 295.390625 C 67.03125 295.558594 64.90625 295.226562 63.109375 295.066406 C 61.3125 294.90625 59.1875 294.742188 58.046875 294.742188 C 57.554688 294.742188 57.554688 294.90625 56.898438 294.90625 C 55.921875 294.90625 52.652344 295.066406 51.835938 294.90625 C 51.675781 294.90625 51.675781 294.90625 51.511719 294.742188 C 51.179688 294.742188 51.019531 294.742188 50.859375 294.742188 C 50.535156 294.742188 50.203125 294.574219 50.203125 294.574219 C 50.203125 294.574219 49.71875 294.410156 49.546875 294.410156 C 49.386719 294.25 48.902344 294.25 48.902344 294.25 C 48.902344 294.25 48.570312 293.925781 48.40625 293.757812 C 48.246094 293.59375 47.753906 293.433594 47.753906 293.433594 C 47.753906 293.433594 47.589844 293.109375 47.429688 292.9375 C 47.269531 292.777344 46.9375 292.453125 46.9375 292.453125 C 46.9375 292.453125 46.773438 292.121094 46.613281 291.800781 C 46.613281 291.636719 46.28125 291.304688 46.28125 291.304688 C 46.28125 291.304688 46.28125 290.820312 46.121094 290.660156 C 46.121094 290.488281 45.957031 290.003906 45.957031 290.003906 C 45.957031 290.003906 45.957031 289.511719 45.957031 289.347656 C 45.957031 289.1875 45.957031 288.695312 45.957031 288.695312 " clip-rule="nonzero"/></clipPath><clipPath id="65e073cf1f"><path d="M 76.902344 159.28125 L 102.210938 159.28125 L 102.210938 174.714844 L 76.902344 174.714844 Z M 76.902344 159.28125 " clip-rule="nonzero"/></clipPath><clipPath id="fb57af840e"><path d="M 81.238281 160.796875 C 99.703125 160.140625 101.171875 161.28125 101.660156 162.589844 C 102.3125 163.730469 102.3125 165.203125 101.820312 166.34375 C 101.496094 167.492188 100.839844 168.46875 99.539062 169.285156 C 97.25 170.757812 90.554688 172.390625 87.449219 171.738281 C 85.324219 171.242188 82.871094 169.78125 82.386719 168.148438 C 81.734375 166.511719 82.386719 163.246094 83.851562 162.097656 C 85.976562 160.625 93.652344 160.625 94.960938 162.429688 C 96.101562 163.894531 91.855469 169.449219 92.835938 170.921875 C 93.652344 171.898438 98.390625 170.921875 98.390625 171.414062 C 98.390625 172.058594 87.933594 174.679688 87.933594 174.679688 C 87.933594 174.679688 89.570312 174.1875 89.570312 174.027344 C 89.570312 173.695312 86.796875 173.371094 85.816406 172.554688 C 84.839844 171.738281 84.023438 170.265625 83.851562 168.964844 C 83.851562 167.492188 84.667969 165.042969 85.816406 164.0625 C 87.117188 162.914062 89.902344 162.429688 91.371094 162.914062 C 92.835938 163.40625 94.800781 165.203125 95.125 166.835938 C 95.457031 168.632812 93.984375 172.058594 92.511719 173.207031 C 91.203125 174.1875 88.589844 174.1875 87.117188 173.53125 C 85.816406 172.878906 84.183594 170.757812 84.023438 169.285156 C 83.691406 167.652344 84.507812 165.203125 85.65625 164.226562 C 86.796875 163.078125 89.246094 162.429688 90.71875 162.753906 C 92.351562 163.078125 94.308594 164.710938 94.800781 166.179688 C 95.457031 167.652344 95.125 170.265625 94.308594 171.574219 C 93.328125 172.878906 91.203125 174.027344 89.570312 174.027344 C 87.933594 174.027344 85.65625 172.878906 84.839844 171.574219 C 84.023438 170.105469 83.851562 166.675781 84.839844 165.042969 C 86.140625 163.246094 90.386719 162.097656 92.835938 161.773438 C 95.125 161.28125 98.066406 160.957031 99.207031 162.097656 C 100.519531 163.730469 100.023438 169.941406 98.390625 171.574219 C 96.757812 173.207031 92.835938 172.554688 90.386719 172.390625 C 88.429688 172.390625 85 171.414062 85.160156 171.082031 C 85.160156 170.757812 91.039062 170.265625 91.039062 170.425781 C 91.039062 170.597656 87.449219 171.898438 86.140625 171.574219 C 84.839844 171.414062 83.691406 170.265625 82.871094 169.285156 C 82.21875 168.308594 81.894531 166.675781 82.054688 165.527344 C 82.21875 164.386719 82.710938 163.078125 83.851562 162.097656 C 86.140625 160.464844 93.328125 158.832031 96.597656 159.484375 C 98.722656 159.808594 101.003906 161.28125 101.660156 162.589844 C 102.3125 163.730469 102.3125 165.203125 101.820312 166.34375 C 101.335938 167.652344 100.1875 168.964844 98.390625 169.78125 C 94.960938 171.242188 85 171.414062 81.570312 170.597656 C 80.097656 170.265625 79.121094 169.941406 78.464844 169.125 C 77.648438 168.308594 77.15625 167 76.996094 165.859375 C 76.996094 164.710938 77.488281 163.40625 78.304688 162.429688 C 78.949219 161.613281 81.238281 160.796875 81.238281 160.796875 " clip-rule="nonzero"/></clipPath><clipPath id="0694911330"><path d="M 73.785156 141.09375 L 102.253906 141.09375 L 102.253906 175.183594 L 73.785156 175.183594 Z M 73.785156 141.09375 " clip-rule="nonzero"/></clipPath><clipPath id="655c4eee7b"><path d="M 89.570312 163.40625 C 92.019531 162.589844 90.222656 160.300781 90.0625 158.347656 C 89.902344 155.894531 90.222656 151.320312 91.371094 149.523438 C 92.1875 148.542969 93.492188 147.890625 94.800781 147.890625 C 96.273438 147.726562 98.554688 148.542969 99.539062 149.523438 C 100.355469 150.5 100.679688 151.640625 100.839844 153.113281 C 101.335938 156.058594 100.679688 161.9375 99.863281 165.203125 C 99.371094 167.652344 98.390625 171.574219 97.734375 171.414062 C 97.25 171.414062 97.734375 166.019531 96.433594 165.042969 C 94.960938 164.0625 90.386719 167.332031 89.246094 166.179688 C 87.613281 164.710938 88.75 156.710938 90.222656 153.769531 C 91.371094 151.8125 93.328125 149.683594 95.125 149.523438 C 96.917969 149.363281 99.863281 150.996094 100.839844 152.457031 C 101.820312 154.261719 101.820312 157.851562 100.839844 159.648438 C 99.863281 161.28125 96.917969 162.753906 95.125 162.589844 C 93.492188 162.589844 91.695312 161.121094 90.71875 159.648438 C 89.40625 157.691406 88.265625 153.929688 88.75 151.480469 C 89.246094 149.191406 91.695312 145.925781 93.328125 145.109375 C 94.640625 144.621094 96.273438 144.945312 97.414062 145.601562 C 98.554688 146.09375 99.863281 147.234375 100.1875 148.542969 C 100.679688 150.179688 99.863281 153.273438 98.882812 154.910156 C 97.90625 156.378906 96.273438 157.527344 94.640625 158.175781 C 92.835938 158.832031 90.878906 159.164062 88.921875 158.667969 C 86.140625 157.691406 80.753906 154.09375 79.9375 151.640625 C 79.445312 149.847656 80.753906 147.234375 82.054688 145.925781 C 83.203125 144.785156 85.484375 143.644531 86.632812 144.128906 C 88.265625 145.109375 90.554688 153.113281 89.246094 154.421875 C 88.265625 155.5625 83.691406 154.261719 81.734375 153.113281 C 80.097656 152.136719 78.464844 150.5 78.132812 149.03125 C 77.648438 147.394531 78.464844 144.945312 79.445312 143.644531 C 80.261719 142.65625 81.402344 142.171875 83.035156 141.679688 C 86.300781 141.023438 94.308594 141.023438 97.574219 142.335938 C 99.539062 143.152344 101.171875 144.460938 101.660156 145.925781 C 102.3125 147.394531 101.988281 150.007812 101.003906 151.480469 C 100.1875 152.789062 96.273438 154.09375 96.273438 153.929688 C 96.101562 153.929688 101.660156 149.683594 101.820312 149.847656 C 101.988281 150.179688 92.675781 161.773438 90.71875 161.28125 C 89.40625 160.957031 90.222656 155.5625 89.246094 154.261719 C 88.75 153.445312 87.289062 153.113281 87.289062 152.953125 C 87.289062 152.953125 91.203125 154.261719 92.1875 155.726562 C 93.003906 157.035156 93.492188 159.324219 92.675781 161.121094 C 91.535156 164.0625 85.160156 169.125 81.734375 169.609375 C 79.28125 170.105469 76.015625 168.964844 74.867188 167.492188 C 73.890625 165.859375 74.050781 161.773438 75.199219 160.300781 C 76.175781 158.992188 78.628906 157.851562 80.261719 158.175781 C 82.21875 158.507812 85.160156 161.121094 85.65625 163.078125 C 85.976562 164.546875 85.160156 167.160156 83.851562 168.308594 C 82.710938 169.449219 80.097656 170.105469 78.628906 169.941406 C 77.316406 169.78125 76.015625 168.964844 75.359375 167.976562 C 74.382812 166.675781 73.566406 164.386719 74.050781 162.589844 C 74.707031 160.140625 79.121094 157.035156 81.734375 155.402344 C 83.527344 154.09375 85.65625 153.113281 87.289062 152.953125 C 88.265625 152.953125 89.246094 153.273438 90.0625 153.769531 C 91.039062 154.421875 92.351562 155.726562 92.835938 156.875 C 93.167969 158.175781 93.167969 159.980469 92.675781 161.121094 C 92.1875 162.429688 91.039062 163.570312 89.902344 164.226562 C 88.589844 165.042969 86.300781 165.363281 84.839844 164.878906 C 83.203125 164.386719 81.402344 162.589844 80.753906 160.796875 C 80.097656 158.832031 80.753906 155.402344 81.570312 153.273438 C 82.21875 151.640625 83.203125 150.5 84.667969 149.191406 C 87.117188 146.910156 93.328125 142.335938 96.273438 142.171875 C 97.734375 142.011719 99.207031 142.65625 100.1875 143.644531 C 101.171875 144.785156 102.3125 147.074219 102.152344 148.707031 C 101.820312 150.5 99.863281 152.789062 97.574219 153.769531 C 94.308594 155.242188 86.472656 154.585938 83.035156 153.445312 C 81.078125 152.789062 79.28125 151.8125 78.628906 150.339844 C 77.8125 148.707031 78.304688 145.109375 79.445312 143.644531 C 80.421875 142.335938 84.507812 141.839844 84.507812 141.679688 C 84.507812 141.679688 82.21875 142.335938 82.21875 142.496094 C 82.21875 143.152344 91.695312 142.011719 94.144531 143.804688 C 95.941406 145.109375 97.25 147.890625 97.089844 149.847656 C 96.917969 151.640625 94.46875 154.585938 92.675781 155.078125 C 91.039062 155.726562 87.933594 155.242188 87.289062 154.261719 C 86.632812 153.113281 89.570312 150.339844 89.246094 148.707031 C 89.082031 147.234375 85.816406 145.109375 85.976562 144.621094 C 86.300781 144.289062 89.246094 146.417969 91.039062 146.578125 C 92.675781 146.578125 94.640625 144.785156 96.101562 145.109375 C 97.734375 145.441406 99.703125 147.074219 100.1875 148.542969 C 100.839844 150.179688 98.722656 154.910156 98.882812 154.910156 C 98.882812 154.910156 99.703125 151.640625 100.023438 151.640625 C 100.519531 151.640625 101.660156 155.242188 101.496094 157.035156 C 101.335938 158.667969 100.355469 160.796875 99.046875 161.613281 C 97.574219 162.589844 93.984375 162.753906 92.511719 161.613281 C 91.039062 160.625 90.0625 157.035156 90.0625 155.242188 C 90.0625 153.769531 90.71875 152.296875 91.535156 151.320312 C 92.351562 150.5 93.824219 149.523438 95.125 149.523438 C 96.757812 149.523438 99.703125 150.824219 100.839844 152.457031 C 102.152344 154.585938 101.820312 158.992188 101.335938 162.257812 C 101.003906 165.695312 100.1875 170.597656 98.230469 172.714844 C 96.757812 174.347656 93.824219 175.328125 92.019531 175.003906 C 90.554688 174.679688 88.921875 173.046875 88.265625 170.921875 C 86.957031 167 88.589844 154.261719 90.71875 150.664062 C 91.695312 148.867188 93.328125 148.050781 94.800781 147.890625 C 96.273438 147.558594 98.390625 148.050781 99.539062 149.523438 C 101.660156 152.457031 101.820312 164.878906 100.519531 168.632812 C 99.863281 170.425781 98.882812 171.414062 97.25 172.058594 C 94.960938 173.207031 89.246094 173.53125 87.289062 172.714844 C 85.976562 172.230469 85.324219 171.082031 85 170.105469 C 84.507812 169.125 84.34375 167.652344 85 166.511719 C 85.65625 165.203125 89.570312 163.40625 89.570312 163.40625 " clip-rule="nonzero"/></clipPath><clipPath id="02ecc91008"><path d="M 140.15625 140.171875 L 221.296875 140.171875 L 221.296875 174.714844 L 140.15625 174.714844 Z M 140.15625 140.171875 " clip-rule="nonzero"/></clipPath><clipPath id="1e410960c7"><path d="M 140.378906 162.257812 C 140.378906 155.402344 140.207031 153.605469 140.378906 151.972656 C 140.699219 150.339844 140.699219 148.375 141.679688 147.074219 C 142.828125 145.761719 145.441406 144.621094 147.394531 144.128906 C 149.03125 143.804688 150.824219 144.289062 152.457031 144.128906 C 154.09375 144.128906 155.5625 143.804688 157.359375 143.644531 C 159.164062 143.472656 161.28125 143.644531 163.246094 143.644531 C 164.878906 143.644531 166.511719 143.644531 168.308594 143.644531 C 169.941406 143.644531 171.738281 143.644531 173.53125 143.644531 C 175.164062 143.644531 176.960938 143.804688 178.59375 143.472656 C 180.398438 143.152344 181.863281 142.011719 183.496094 141.679688 C 185.296875 141.515625 187.253906 141.679688 189.050781 141.839844 C 190.84375 142.171875 192.648438 142.828125 194.445312 143.152344 C 196.078125 143.472656 198.691406 143.472656 199.507812 143.804688 C 199.828125 143.96875 199.828125 144.289062 200.160156 144.289062 C 200.484375 144.460938 201.464844 144.289062 201.796875 144.460938 C 201.957031 144.460938 201.957031 144.460938 202.117188 144.460938 C 202.613281 144.621094 203.914062 144.460938 204.082031 144.289062 C 204.246094 144.289062 204.246094 144.128906 204.246094 143.96875 C 204.40625 143.804688 204.570312 143.3125 204.570312 143.3125 C 204.570312 143.3125 204.730469 142.828125 204.902344 142.65625 C 205.0625 142.496094 205.386719 142.171875 205.386719 142.171875 C 205.386719 142.171875 205.71875 141.839844 205.878906 141.679688 C 206.039062 141.515625 206.363281 141.195312 206.363281 141.195312 C 206.363281 141.195312 206.855469 141.023438 207.019531 140.863281 C 207.179688 140.699219 207.675781 140.539062 207.675781 140.539062 C 207.675781 140.539062 208.167969 140.378906 208.328125 140.378906 C 208.652344 140.378906 208.984375 140.207031 208.984375 140.207031 C 208.984375 140.207031 209.46875 140.207031 209.800781 140.207031 C 209.960938 140.207031 210.449219 140.207031 210.449219 140.207031 C 210.449219 140.207031 210.617188 140.378906 210.617188 140.378906 C 210.617188 140.378906 210.78125 140.378906 210.78125 140.378906 C 210.78125 140.378906 211.265625 140.378906 211.433594 140.378906 C 211.597656 140.378906 212.082031 140.378906 212.082031 140.378906 C 212.082031 140.378906 212.574219 140.539062 212.734375 140.539062 C 213.066406 140.699219 213.390625 140.699219 213.390625 140.699219 C 213.390625 140.699219 213.886719 141.023438 214.046875 141.023438 C 214.207031 141.195312 214.703125 141.355469 214.703125 141.355469 C 214.703125 141.355469 215.023438 141.679688 215.1875 141.839844 C 215.347656 142.011719 215.679688 142.335938 215.679688 142.335938 C 215.679688 142.335938 216.003906 142.65625 216.164062 142.828125 C 216.335938 143.152344 216.496094 143.472656 216.496094 143.472656 C 216.496094 143.472656 216.660156 143.804688 216.820312 144.128906 C 216.820312 144.289062 216.980469 144.785156 216.980469 144.785156 C 217.152344 145.109375 218.945312 148.214844 219.109375 148.867188 C 219.109375 149.191406 218.945312 149.191406 218.945312 149.363281 C 219.109375 149.523438 219.433594 149.847656 219.601562 150.007812 C 219.601562 150.179688 219.601562 150.339844 219.601562 150.339844 C 219.765625 150.5 219.925781 150.664062 220.085938 150.996094 C 220.25 151.320312 220.085938 152.136719 220.25 152.953125 C 220.417969 153.769531 220.902344 154.746094 221.066406 155.5625 C 221.234375 156.542969 221.066406 158.507812 221.066406 158.507812 C 221.066406 158.507812 221.066406 158.992188 221.066406 159.164062 C 221.066406 159.324219 220.902344 159.808594 220.902344 159.808594 C 220.902344 159.808594 220.742188 160.300781 220.742188 160.464844 C 220.582031 160.796875 220.417969 161.121094 220.417969 161.121094 C 220.417969 161.121094 220.085938 161.613281 220.085938 161.773438 C 219.925781 161.9375 219.601562 162.257812 219.601562 162.429688 C 219.601562 162.429688 219.269531 162.429688 219.269531 162.753906 C 219.109375 163.40625 220.417969 166.019531 219.925781 167.492188 C 219.433594 169.125 217.636719 170.921875 216.003906 171.898438 C 214.371094 172.714844 212.082031 172.554688 210.285156 172.714844 C 208.652344 172.878906 207.019531 172.714844 205.222656 172.554688 C 203.589844 172.554688 201.957031 172.554688 200.160156 172.554688 C 198.527344 172.554688 196.734375 172.554688 195.097656 172.554688 C 193.789062 172.390625 192.15625 172.230469 191.339844 172.390625 C 190.683594 172.554688 190.683594 172.714844 190.027344 172.878906 C 188.726562 173.207031 185.945312 173.695312 183.988281 174.027344 C 182.191406 174.347656 179.90625 174.679688 178.765625 174.679688 C 178.269531 174.511719 177.949219 174.347656 177.617188 174.347656 C 177.453125 174.347656 177.292969 174.347656 176.960938 174.347656 C 176.800781 174.1875 176.476562 174.1875 176.476562 174.1875 C 176.476562 174.1875 175.984375 174.027344 175.820312 174.027344 C 175.660156 174.027344 175.328125 173.863281 175.328125 173.863281 C 175.328125 173.863281 175.003906 173.53125 174.84375 173.53125 C 174.679688 173.371094 174.347656 173.207031 174.347656 173.207031 C 174.347656 173.207031 174.027344 172.878906 173.863281 172.714844 C 173.695312 172.554688 173.695312 172.390625 173.53125 172.390625 C 172.878906 172.058594 170.597656 172.390625 168.964844 172.390625 C 167.160156 172.390625 164.226562 172.390625 163.40625 172.390625 C 163.078125 172.390625 162.914062 172.230469 162.753906 172.230469 C 162.589844 172.230469 162.257812 172.230469 162.097656 172.230469 C 161.9375 172.230469 161.9375 172.230469 161.773438 172.058594 C 161.773438 172.058594 161.613281 172.058594 161.441406 172.058594 C 161.28125 172.058594 161.121094 171.898438 160.957031 171.738281 C 160.796875 171.738281 160.464844 171.574219 160.300781 171.574219 C 160.300781 171.414062 160.140625 171.414062 160.140625 171.414062 C 159.980469 171.242188 159.980469 171.242188 159.808594 171.242188 C 159.808594 171.082031 159.808594 171.082031 159.648438 171.082031 C 159.484375 170.921875 159.324219 170.921875 158.992188 170.921875 C 158.015625 170.921875 154.421875 172.230469 152.296875 172.714844 C 150.179688 173.046875 147.726562 174.027344 145.925781 173.53125 C 144.128906 172.878906 142.335938 171.082031 141.355469 169.285156 C 140.378906 167.332031 140.378906 162.257812 140.378906 162.257812 " clip-rule="nonzero"/></clipPath><clipPath id="d4311d133b"><path d="M 137.246094 140 L 220 140 L 220 172.382812 L 137.246094 172.382812 Z M 137.246094 140 " clip-rule="nonzero"/></clipPath><clipPath id="9120ab38f7"><path d="M 215.023438 152.136719 C 205.546875 151.480469 203.914062 150.179688 203.589844 148.867188 C 203.097656 147.394531 203.753906 144.460938 204.902344 143.3125 C 206.203125 141.839844 209.632812 141.355469 211.433594 141.515625 C 213.066406 141.679688 215.023438 142.496094 215.839844 143.804688 C 216.660156 145.109375 216.660156 148.375 215.839844 149.683594 C 215.023438 150.996094 213.066406 151.8125 211.597656 151.972656 C 209.632812 151.972656 206.363281 150.824219 205.386719 149.363281 C 204.40625 147.890625 204.570312 144.785156 205.546875 143.3125 C 206.363281 142.171875 208.328125 141.515625 209.800781 141.195312 C 211.597656 140.863281 214.207031 141.195312 215.839844 141.839844 C 216.980469 142.335938 218.128906 142.988281 218.785156 144.128906 C 219.433594 145.277344 219.765625 147.726562 219.109375 149.03125 C 218.613281 150.339844 217.636719 151.320312 215.347656 152.136719 C 206.855469 155.402344 158.507812 155.726562 147.558594 154.910156 C 144.128906 154.585938 142.335938 154.585938 140.863281 153.605469 C 139.5625 152.789062 138.574219 151.480469 138.25 150.179688 C 137.925781 149.03125 137.925781 147.234375 138.574219 146.09375 C 139.230469 144.785156 141.515625 143.152344 142.828125 142.828125 C 143.804688 142.496094 144.785156 142.335938 145.761719 142.988281 C 147.558594 144.460938 149.363281 151.972656 150.007812 156.21875 C 150.5 160.140625 150.5 165.203125 149.523438 167.816406 C 149.03125 169.449219 148.375 170.597656 147.074219 171.242188 C 145.761719 172.058594 143.152344 172.554688 141.679688 171.898438 C 140.046875 171.082031 137.925781 168.148438 137.925781 166.34375 C 137.925781 164.546875 140.046875 161.441406 141.679688 160.796875 C 143.472656 160.140625 147.394531 161.28125 148.542969 162.914062 C 149.683594 164.386719 149.523438 168.46875 148.375 169.941406 C 147.558594 171.414062 144.945312 172.554688 143.3125 172.230469 C 141.515625 171.898438 138.574219 169.285156 137.925781 167.492188 C 137.59375 165.859375 138.25 163.246094 139.5625 162.257812 C 141.023438 160.957031 144.945312 160.464844 146.742188 161.121094 C 148.214844 161.773438 149.363281 164.226562 149.683594 165.859375 C 149.847656 167 148.867188 169.449219 148.867188 169.449219 C 148.867188 169.449219 149.847656 166.34375 149.683594 166.34375 C 149.683594 166.34375 149.03125 169.285156 148.214844 170.265625 C 147.394531 171.242188 145.761719 172.058594 144.460938 172.230469 C 143.152344 172.390625 141.515625 171.898438 140.378906 171.242188 C 139.390625 170.425781 138.574219 169.449219 138.089844 167.816406 C 136.777344 163.730469 137.273438 146.417969 138.410156 146.257812 C 139.230469 146.09375 142.496094 153.769531 142.011719 154.09375 C 141.839844 154.421875 139.5625 152.628906 138.742188 151.480469 C 138.089844 150.339844 137.757812 148.707031 138.089844 147.394531 C 138.574219 145.761719 139.882812 143.96875 142.828125 142.828125 C 152.457031 138.742188 205.878906 139.882812 214.53125 141.679688 C 216.496094 142.011719 217.152344 142.335938 217.96875 143.152344 C 218.785156 143.96875 219.601562 145.277344 219.601562 146.578125 C 219.433594 148.050781 218.128906 150.824219 216.496094 151.8125 C 214.371094 152.789062 209.144531 151.972656 207.179688 150.996094 C 205.878906 150.339844 205.0625 149.363281 204.730469 148.214844 C 204.40625 146.578125 205.0625 143.472656 206.363281 142.496094 C 207.675781 141.355469 210.941406 141.023438 212.734375 141.679688 C 214.371094 142.335938 216.496094 144.460938 216.660156 146.09375 C 216.820312 147.726562 215.347656 150.339844 213.886719 151.320312 C 212.25 152.457031 208.8125 152.789062 207.019531 151.972656 C 205.386719 151.320312 203.429688 149.191406 203.265625 147.726562 C 203.097656 146.09375 204.246094 143.644531 205.878906 142.496094 C 207.996094 141.195312 213.886719 141.515625 216.164062 142.171875 C 217.636719 142.65625 218.453125 143.3125 219.109375 144.289062 C 219.765625 145.109375 220.085938 146.578125 219.925781 147.726562 C 219.925781 148.707031 219.109375 150.007812 218.292969 150.824219 C 217.476562 151.480469 215.023438 152.136719 215.023438 152.136719 " clip-rule="nonzero"/></clipPath></defs><g clip-path="url(#8003d0650a)"><path fill="#5e17eb" d="M 182.191406 207.386719 L 135.050781 253.351562 L 135.050781 345.066406 L 104.804688 345.066406 L 104.804688 81.273438 L 135.050781 81.273438 L 135.050781 218.5625 L 177.359375 176.304688 L 214.652344 176.304688 L 203.214844 187.347656 L 319.332031 345.066406 L 279.054688 345.066406 Z M 140.429688 176.304688 L 169.746094 176.304688 L 140.429688 205.582031 Z M 140.429688 144.539062 L 217.246094 144.539062 L 217.246094 170.921875 L 140.429688 170.921875 Z M 272.519531 81.273438 L 313.042969 81.273438 L 222.632812 168.597656 L 222.632812 139.152344 L 214.566406 139.152344 Z M 99.429688 170.921875 L 80.152344 170.921875 L 80.152344 293.210938 L 49.914062 293.210938 L 49.914062 29.410156 L 226.128906 29.410156 L 226.128906 55.792969 L 80.152344 55.792969 L 80.152344 144.539062 L 99.429688 144.539062 Z M 210.34375 187.953125 L 222.402344 176.304688 L 222.632812 176.304688 L 222.632812 176.085938 L 326.367188 75.886719 L 270.292969 75.886719 L 206.949219 139.152344 L 140.429688 139.152344 L 140.429688 75.886719 L 99.429688 75.886719 L 99.429688 139.152344 L 85.535156 139.152344 L 85.535156 61.179688 L 231.503906 61.179688 L 231.503906 24.03125 L 44.527344 24.03125 L 44.527344 298.589844 L 85.535156 298.589844 L 85.535156 176.304688 L 99.429688 176.304688 L 99.429688 350.453125 L 140.429688 350.453125 L 140.429688 255.625 L 181.425781 215.65625 L 275.457031 349.3125 L 276.253906 350.453125 L 329.984375 350.453125 L 210.34375 187.953125 " fill-opacity="1" fill-rule="nonzero"/></g><g clip-path="url(#ac797efbd5)"><g clip-path="url(#f59fc3294e)"><path fill="#5e17eb" d="M 40.5625 19.003906 L 235.164062 19.003906 L 235.164062 71.117188 L 40.5625 71.117188 Z M 40.5625 19.003906 " fill-opacity="1" fill-rule="nonzero"/></g></g><g clip-path="url(#f0a81781ba)"><g clip-path="url(#13393b7590)"><path fill="#5e17eb" d="M 89.246094 28.484375 L 237.917969 28.484375 L 237.917969 66.539062 L 89.246094 66.539062 Z M 89.246094 28.484375 " fill-opacity="1" fill-rule="nonzero"/></g></g><g clip-path="url(#ffbecc6ece)"><g clip-path="url(#68f0b9ca17)"><path fill="#5e17eb" d="M 37.789062 26.03125 L 132.53125 26.03125 L 132.53125 192.199219 L 37.789062 192.199219 Z M 37.789062 26.03125 " fill-opacity="1" fill-rule="nonzero"/></g></g><g clip-path="url(#c0724540b8)"><g clip-path="url(#dbce241df7)"><path fill="#5e17eb" d="M 39.421875 153.445312 L 91.039062 153.445312 L 91.039062 302.042969 L 39.421875 302.042969 Z M 39.421875 153.445312 " fill-opacity="1" fill-rule="nonzero"/></g></g><g clip-path="url(#65e073cf1f)"><g clip-path="url(#fb57af840e)"><path fill="#5e17eb" d="M 70.460938 152.953125 L 108.320312 152.953125 L 108.320312 181.375 L 70.460938 181.375 Z M 70.460938 152.953125 " fill-opacity="1" fill-rule="nonzero"/></g></g><g clip-path="url(#0694911330)"><g clip-path="url(#655c4eee7b)"><path fill="#5e17eb" d="M 67.515625 135.144531 L 108.6875 135.144531 L 108.6875 181.613281 L 67.515625 181.613281 Z M 67.515625 135.144531 " fill-opacity="1" fill-rule="nonzero"/></g></g><g clip-path="url(#02ecc91008)"><g clip-path="url(#1e410960c7)"><path fill="#5e17eb" d="M 133.84375 133.671875 L 227.796875 133.671875 L 227.796875 181.214844 L 133.84375 181.214844 Z M 133.84375 133.671875 " fill-opacity="1" fill-rule="nonzero"/></g></g><g clip-path="url(#d4311d133b)"><g clip-path="url(#9120ab38f7)"><path fill="#5e17eb" d="M 131.394531 134.660156 L 226.664062 134.660156 L 226.664062 178.765625 L 131.394531 178.765625 Z M 131.394531 134.660156 " fill-opacity="1" fill-rule="nonzero"/></g></g></svg>